G04 #@! TF.GenerationSoftware,KiCad,Pcbnew,8.0.4*
G04 #@! TF.CreationDate,2025-01-01T16:22:17-06:00*
G04 #@! TF.ProjectId,HVBoard,4856426f-6172-4642-9e6b-696361645f70,rev?*
G04 #@! TF.SameCoordinates,Original*
G04 #@! TF.FileFunction,Copper,L2,Bot*
G04 #@! TF.FilePolarity,Positive*
%FSLAX46Y46*%
G04 Gerber Fmt 4.6, Leading zero omitted, Abs format (unit mm)*
G04 Created by KiCad (PCBNEW 8.0.4) date 2025-01-01 16:22:17*
%MOMM*%
%LPD*%
G01*
G04 APERTURE LIST*
G04 Aperture macros list*
%AMRoundRect*
0 Rectangle with rounded corners*
0 $1 Rounding radius*
0 $2 $3 $4 $5 $6 $7 $8 $9 X,Y pos of 4 corners*
0 Add a 4 corners polygon primitive as box body*
4,1,4,$2,$3,$4,$5,$6,$7,$8,$9,$2,$3,0*
0 Add four circle primitives for the rounded corners*
1,1,$1+$1,$2,$3*
1,1,$1+$1,$4,$5*
1,1,$1+$1,$6,$7*
1,1,$1+$1,$8,$9*
0 Add four rect primitives between the rounded corners*
20,1,$1+$1,$2,$3,$4,$5,0*
20,1,$1+$1,$4,$5,$6,$7,0*
20,1,$1+$1,$6,$7,$8,$9,0*
20,1,$1+$1,$8,$9,$2,$3,0*%
G04 Aperture macros list end*
G04 #@! TA.AperFunction,SMDPad,CuDef*
%ADD10C,1.500000*%
G04 #@! TD*
G04 #@! TA.AperFunction,ComponentPad*
%ADD11R,3.000000X3.000000*%
G04 #@! TD*
G04 #@! TA.AperFunction,ComponentPad*
%ADD12C,3.000000*%
G04 #@! TD*
G04 #@! TA.AperFunction,ComponentPad*
%ADD13R,2.000000X1.905000*%
G04 #@! TD*
G04 #@! TA.AperFunction,ComponentPad*
%ADD14O,2.000000X1.905000*%
G04 #@! TD*
G04 #@! TA.AperFunction,ComponentPad*
%ADD15R,1.600000X1.600000*%
G04 #@! TD*
G04 #@! TA.AperFunction,ComponentPad*
%ADD16O,1.600000X1.600000*%
G04 #@! TD*
G04 #@! TA.AperFunction,ComponentPad*
%ADD17R,1.700000X1.700000*%
G04 #@! TD*
G04 #@! TA.AperFunction,ComponentPad*
%ADD18C,1.600000*%
G04 #@! TD*
G04 #@! TA.AperFunction,ComponentPad*
%ADD19RoundRect,0.250000X-0.750000X0.600000X-0.750000X-0.600000X0.750000X-0.600000X0.750000X0.600000X0*%
G04 #@! TD*
G04 #@! TA.AperFunction,ComponentPad*
%ADD20O,2.000000X1.700000*%
G04 #@! TD*
G04 #@! TA.AperFunction,ComponentPad*
%ADD21R,2.700000X2.700000*%
G04 #@! TD*
G04 #@! TA.AperFunction,ComponentPad*
%ADD22C,2.700000*%
G04 #@! TD*
G04 #@! TA.AperFunction,ComponentPad*
%ADD23RoundRect,0.250000X-0.600000X-0.750000X0.600000X-0.750000X0.600000X0.750000X-0.600000X0.750000X0*%
G04 #@! TD*
G04 #@! TA.AperFunction,ComponentPad*
%ADD24O,1.700000X2.000000*%
G04 #@! TD*
G04 #@! TA.AperFunction,ComponentPad*
%ADD25RoundRect,0.250000X-0.725000X0.600000X-0.725000X-0.600000X0.725000X-0.600000X0.725000X0.600000X0*%
G04 #@! TD*
G04 #@! TA.AperFunction,ComponentPad*
%ADD26O,1.950000X1.700000*%
G04 #@! TD*
G04 #@! TA.AperFunction,ComponentPad*
%ADD27C,2.000000*%
G04 #@! TD*
G04 #@! TA.AperFunction,ComponentPad*
%ADD28R,2.000000X2.000000*%
G04 #@! TD*
G04 #@! TA.AperFunction,ComponentPad*
%ADD29R,1.905000X2.000000*%
G04 #@! TD*
G04 #@! TA.AperFunction,ComponentPad*
%ADD30O,1.905000X2.000000*%
G04 #@! TD*
G04 #@! TA.AperFunction,ComponentPad*
%ADD31RoundRect,0.250000X-0.350000X-0.625000X0.350000X-0.625000X0.350000X0.625000X-0.350000X0.625000X0*%
G04 #@! TD*
G04 #@! TA.AperFunction,ComponentPad*
%ADD32O,1.200000X1.750000*%
G04 #@! TD*
G04 #@! TA.AperFunction,SMDPad,CuDef*
%ADD33RoundRect,0.250000X0.400000X0.625000X-0.400000X0.625000X-0.400000X-0.625000X0.400000X-0.625000X0*%
G04 #@! TD*
G04 #@! TA.AperFunction,ComponentPad*
%ADD34R,1.524000X1.524000*%
G04 #@! TD*
G04 #@! TA.AperFunction,ViaPad*
%ADD35C,0.600000*%
G04 #@! TD*
G04 #@! TA.AperFunction,Conductor*
%ADD36C,0.500000*%
G04 #@! TD*
G04 #@! TA.AperFunction,Conductor*
%ADD37C,0.200000*%
G04 #@! TD*
G04 APERTURE END LIST*
D10*
G04 #@! TO.P,H2,1*
G04 #@! TO.N,N/C*
X61500000Y-13500000D03*
G04 #@! TD*
G04 #@! TO.P,H1,1*
G04 #@! TO.N,N/C*
X40000000Y-29500000D03*
G04 #@! TD*
D11*
G04 #@! TO.P,J7,1,Pin_1*
G04 #@! TO.N,120VAC_NEUTRAL*
X62420000Y-38000000D03*
D12*
G04 #@! TO.P,J7,2,Pin_2*
G04 #@! TO.N,120VAC_HOT*
X67500000Y-38000000D03*
G04 #@! TD*
D13*
G04 #@! TO.P,Q5,1,A1*
G04 #@! TO.N,/BOILER_HOT_OUT*
X108055000Y-29960000D03*
D14*
G04 #@! TO.P,Q5,2,A2*
G04 #@! TO.N,/120VAC_HOT_SWITCHED*
X108055000Y-32500000D03*
G04 #@! TO.P,Q5,3,G*
G04 #@! TO.N,Net-(Q5-G)*
X108055000Y-35040000D03*
G04 #@! TD*
D15*
G04 #@! TO.P,U2,1*
G04 #@! TO.N,Net-(R7-Pad2)*
X52920000Y-50800000D03*
D16*
G04 #@! TO.P,U2,2*
G04 #@! TO.N,Net-(Q4-D)*
X55460000Y-50800000D03*
G04 #@! TO.P,U2,3,NC*
G04 #@! TO.N,unconnected-(U2-NC-Pad3)*
X58000000Y-50800000D03*
G04 #@! TO.P,U2,4*
G04 #@! TO.N,Net-(Q3-G)*
X58000000Y-43180000D03*
G04 #@! TO.P,U2,5,NC*
G04 #@! TO.N,unconnected-(U2-NC-Pad5)*
X55460000Y-43180000D03*
G04 #@! TO.P,U2,6*
G04 #@! TO.N,Net-(R6-Pad1)*
X52920000Y-43180000D03*
G04 #@! TD*
D17*
G04 #@! TO.P,TP3,1,1*
G04 #@! TO.N,/BOILER_TRIAC*
X96500000Y-65000000D03*
G04 #@! TD*
D18*
G04 #@! TO.P,R8,1*
G04 #@! TO.N,/120VAC_HOT_SWITCHED*
X67000000Y-32580000D03*
D16*
G04 #@! TO.P,R8,2*
G04 #@! TO.N,Net-(C3-Pad1)*
X67000000Y-22420000D03*
G04 #@! TD*
D19*
G04 #@! TO.P,J5,1,Pin_1*
G04 #@! TO.N,GND*
X30500000Y-63500000D03*
D20*
G04 #@! TO.P,J5,2,Pin_2*
G04 #@! TO.N,/STEAM_VALVE_IN*
X30500000Y-66000000D03*
G04 #@! TD*
D21*
G04 #@! TO.P,J3,1,1*
G04 #@! TO.N,/PUMP_HOT_OUT*
X52500000Y-28000000D03*
D22*
G04 #@! TO.P,J3,2,2*
G04 #@! TO.N,unconnected-(J3-Pad2)*
X52500000Y-24040000D03*
G04 #@! TO.P,J3,3,3*
G04 #@! TO.N,120VAC_NEUTRAL*
X52500000Y-20080000D03*
G04 #@! TD*
D19*
G04 #@! TO.P,J9,1,Pin_1*
G04 #@! TO.N,/THERMISTOR_IN*
X21000000Y-65500000D03*
D20*
G04 #@! TO.P,J9,2,Pin_2*
G04 #@! TO.N,/THERMISTOR_OUT*
X21000000Y-68000000D03*
G04 #@! TD*
D11*
G04 #@! TO.P,J8,1,Pin_1*
G04 #@! TO.N,/BOILER_HOT_OUT*
X106500000Y-17000000D03*
D12*
G04 #@! TO.P,J8,2,Pin_2*
G04 #@! TO.N,120VAC_NEUTRAL*
X101420000Y-17000000D03*
G04 #@! TD*
D23*
G04 #@! TO.P,J4,1,Pin_1*
G04 #@! TO.N,/THERMISTOR_OUT*
X20000000Y-57500000D03*
D24*
G04 #@! TO.P,J4,2,Pin_2*
G04 #@! TO.N,/THERMISTOR_IN*
X22500000Y-57500000D03*
G04 #@! TD*
D15*
G04 #@! TO.P,U3,1*
G04 #@! TO.N,Net-(R12-Pad2)*
X102960000Y-50620000D03*
D16*
G04 #@! TO.P,U3,2*
G04 #@! TO.N,Net-(Q6-D)*
X105500000Y-50620000D03*
G04 #@! TO.P,U3,3,NC*
G04 #@! TO.N,unconnected-(U3-NC-Pad3)*
X108040000Y-50620000D03*
G04 #@! TO.P,U3,4*
G04 #@! TO.N,Net-(Q5-G)*
X108040000Y-43000000D03*
G04 #@! TO.P,U3,5,NC*
G04 #@! TO.N,unconnected-(U3-NC-Pad5)*
X105500000Y-43000000D03*
G04 #@! TO.P,U3,6*
G04 #@! TO.N,Net-(R11-Pad1)*
X102960000Y-43000000D03*
G04 #@! TD*
D25*
G04 #@! TO.P,J6,1,Pin_1*
G04 #@! TO.N,GND*
X39500000Y-62000000D03*
D26*
G04 #@! TO.P,J6,2,Pin_2*
G04 #@! TO.N,/PRESSURE_SENSOR_SIG*
X39500000Y-64500000D03*
G04 #@! TO.P,J6,3,Pin_3*
G04 #@! TO.N,+5V*
X39500000Y-67000000D03*
G04 #@! TD*
D18*
G04 #@! TO.P,R13,1*
G04 #@! TO.N,/120VAC_HOT_SWITCHED*
X94500000Y-32500000D03*
D16*
G04 #@! TO.P,R13,2*
G04 #@! TO.N,Net-(C1-Pad1)*
X94500000Y-22340000D03*
G04 #@! TD*
D17*
G04 #@! TO.P,TP6,1,1*
G04 #@! TO.N,+5V*
X49000000Y-66500000D03*
G04 #@! TD*
D27*
G04 #@! TO.P,K1,13*
G04 #@! TO.N,120VAC_HOT*
X81500000Y-37500000D03*
X74000000Y-37500000D03*
G04 #@! TO.P,K1,14*
G04 #@! TO.N,/120VAC_HOT_SWITCHED*
X81500000Y-32500000D03*
X74000000Y-32500000D03*
D28*
G04 #@! TO.P,K1,A1*
G04 #@! TO.N,+5V*
X81500000Y-57500000D03*
D27*
G04 #@! TO.P,K1,A2*
G04 #@! TO.N,Net-(D1-A)*
X74000000Y-57500000D03*
G04 #@! TD*
D29*
G04 #@! TO.P,Q3,1,A1*
G04 #@! TO.N,/PUMP_HOT_OUT*
X71420000Y-28000000D03*
D30*
G04 #@! TO.P,Q3,2,A2*
G04 #@! TO.N,/120VAC_HOT_SWITCHED*
X73960000Y-28000000D03*
G04 #@! TO.P,Q3,3,G*
G04 #@! TO.N,Net-(Q3-G)*
X76500000Y-28000000D03*
G04 #@! TD*
D27*
G04 #@! TO.P,C3,1*
G04 #@! TO.N,Net-(C3-Pad1)*
X62500000Y-18000000D03*
G04 #@! TO.P,C3,2*
G04 #@! TO.N,/PUMP_HOT_OUT*
X62500000Y-28000000D03*
G04 #@! TD*
D17*
G04 #@! TO.P,TP2,1,1*
G04 #@! TO.N,/PUMP_TRIAC*
X62000000Y-58500000D03*
G04 #@! TD*
D31*
G04 #@! TO.P,J2,1,Pin_1*
G04 #@! TO.N,+5V*
X54000000Y-67500000D03*
D32*
G04 #@! TO.P,J2,2,Pin_2*
G04 #@! TO.N,/AC_RELAYS*
X56000000Y-67500000D03*
G04 #@! TO.P,J2,3,Pin_3*
G04 #@! TO.N,/AC_ZC*
X58000000Y-67500000D03*
G04 #@! TO.P,J2,4,Pin_4*
G04 #@! TO.N,/PUMP_TRIAC*
X60000000Y-67500000D03*
G04 #@! TO.P,J2,5,Pin_5*
G04 #@! TO.N,/BOILER_TRIAC*
X62000000Y-67500000D03*
G04 #@! TO.P,J2,6,Pin_6*
G04 #@! TO.N,/STEAM_VALVE_IN*
X64000000Y-67500000D03*
G04 #@! TO.P,J2,7,Pin_7*
G04 #@! TO.N,/PRESSURE_SENSOR_SIG*
X66000000Y-67500000D03*
G04 #@! TO.P,J2,8,Pin_8*
G04 #@! TO.N,GND*
X68000000Y-67500000D03*
G04 #@! TD*
D17*
G04 #@! TO.P,TP1,1,1*
G04 #@! TO.N,/AC_ZC*
X57000000Y-63000000D03*
G04 #@! TD*
D27*
G04 #@! TO.P,C1,1*
G04 #@! TO.N,Net-(C1-Pad1)*
X98000000Y-24000000D03*
G04 #@! TO.P,C1,2*
G04 #@! TO.N,/BOILER_HOT_OUT*
X108000000Y-24000000D03*
G04 #@! TD*
D33*
G04 #@! TO.P,R9,1*
G04 #@! TO.N,Net-(Q3-G)*
X75500000Y-20500000D03*
G04 #@! TO.P,R9,2*
G04 #@! TO.N,/PUMP_HOT_OUT*
X72400000Y-20500000D03*
G04 #@! TD*
D34*
G04 #@! TO.P,U4,1,N*
G04 #@! TO.N,120VAC_NEUTRAL*
X44500000Y-35220000D03*
G04 #@! TO.P,U4,2,L*
G04 #@! TO.N,120VAC_HOT*
X44500000Y-40300000D03*
G04 #@! TO.P,U4,3,V+*
G04 #@! TO.N,/ACDC_5V*
X44500000Y-53000000D03*
G04 #@! TO.P,U4,4,V-*
G04 #@! TO.N,GND*
X44500000Y-55540000D03*
G04 #@! TD*
D35*
G04 #@! TO.N,/AC_ZC*
X52000000Y-56500000D03*
G04 #@! TO.N,+5V*
X77500000Y-64400000D03*
X97000000Y-53000000D03*
X62000000Y-64500000D03*
G04 #@! TO.N,GND*
X60500000Y-55540000D03*
X66500000Y-59500000D03*
G04 #@! TO.N,/BOILER_TRIAC*
X101500000Y-60000000D03*
G04 #@! TO.N,120VAC_NEUTRAL*
X49500000Y-34000000D03*
G04 #@! TO.N,/STEAM_VALVE_IN*
X49500000Y-69500000D03*
G04 #@! TD*
D36*
G04 #@! TO.N,Net-(Q3-G)*
X58000000Y-43180000D02*
X81320000Y-43180000D01*
X81320000Y-43180000D02*
X86500000Y-38000000D01*
X86500000Y-38000000D02*
X86500000Y-30000000D01*
X77000000Y-20500000D02*
X75500000Y-20500000D01*
X86500000Y-30000000D02*
X77000000Y-20500000D01*
D37*
G04 #@! TO.N,/AC_ZC*
X52000000Y-56500000D02*
X53000000Y-57500000D01*
X53000000Y-57500000D02*
X53000000Y-59000000D01*
X53000000Y-59000000D02*
X57000000Y-63000000D01*
G04 #@! TO.N,+5V*
X39500000Y-67000000D02*
X48500000Y-67000000D01*
G04 #@! TO.N,/PRESSURE_SENSOR_SIG*
X66000000Y-67500000D02*
X63000000Y-70500000D01*
X63000000Y-70500000D02*
X39500000Y-70500000D01*
X36500000Y-67500000D02*
X36500000Y-66000000D01*
X39500000Y-70500000D02*
X36500000Y-67500000D01*
X36500000Y-66000000D02*
X38000000Y-64500000D01*
X38000000Y-64500000D02*
X39500000Y-64500000D01*
G04 #@! TO.N,GND*
X30500000Y-63500000D02*
X32000000Y-62000000D01*
X32000000Y-62000000D02*
X39500000Y-62000000D01*
X39500000Y-62000000D02*
X39500000Y-60540000D01*
X39500000Y-60540000D02*
X44500000Y-55540000D01*
G04 #@! TO.N,+5V*
X77500000Y-64400000D02*
X74600000Y-64400000D01*
X74600000Y-64400000D02*
X74500000Y-64500000D01*
X92500000Y-57500000D02*
X97000000Y-53000000D01*
X81500000Y-57500000D02*
X92500000Y-57500000D01*
X62000000Y-64500000D02*
X74500000Y-64500000D01*
X74500000Y-64500000D02*
X81500000Y-57500000D01*
X62000000Y-64500000D02*
X57000000Y-64500000D01*
X57000000Y-64500000D02*
X54000000Y-67500000D01*
D36*
G04 #@! TO.N,GND*
X64960000Y-55540000D02*
X65000000Y-55500000D01*
X60500000Y-55540000D02*
X64960000Y-55540000D01*
X60500000Y-55540000D02*
X44500000Y-55540000D01*
X65000000Y-55500000D02*
X66500000Y-57000000D01*
X66500000Y-57000000D02*
X66500000Y-59500000D01*
D37*
G04 #@! TO.N,/BOILER_TRIAC*
X101500000Y-60000000D02*
X96500000Y-65000000D01*
X63000000Y-65000000D02*
X62000000Y-66000000D01*
X62000000Y-66000000D02*
X62000000Y-67500000D01*
X96500000Y-65000000D02*
X63000000Y-65000000D01*
D36*
G04 #@! TO.N,120VAC_HOT*
X67500000Y-38000000D02*
X64500000Y-41000000D01*
X56800000Y-40300000D02*
X44500000Y-40300000D01*
X57500000Y-41000000D02*
X56800000Y-40300000D01*
X64500000Y-41000000D02*
X57500000Y-41000000D01*
G04 #@! TO.N,120VAC_NEUTRAL*
X49500000Y-34000000D02*
X51500000Y-34000000D01*
X51500000Y-34000000D02*
X55500000Y-38000000D01*
X55500000Y-38000000D02*
X62420000Y-38000000D01*
G04 #@! TO.N,Net-(Q3-G)*
X75500000Y-20500000D02*
X75500000Y-27000000D01*
X75500000Y-27000000D02*
X76500000Y-28000000D01*
G04 #@! TO.N,/PUMP_HOT_OUT*
X72400000Y-27020000D02*
X72400000Y-20500000D01*
X71420000Y-28000000D02*
X72400000Y-27020000D01*
D37*
G04 #@! TO.N,/STEAM_VALVE_IN*
X61500000Y-70000000D02*
X50000000Y-70000000D01*
X64000000Y-67500000D02*
X61500000Y-70000000D01*
X50000000Y-70000000D02*
X49500000Y-69500000D01*
G04 #@! TO.N,+5V*
X53000000Y-66500000D02*
X54000000Y-67500000D01*
X49000000Y-66500000D02*
X53000000Y-66500000D01*
G04 #@! TD*
M02*
