M48
; DRILL file {KiCad 8.0.4} date 2025-01-01T16:22:17-0600
; FORMAT={-:-/ absolute / metric / decimal}
; #@! TF.CreationDate,2025-01-01T16:22:17-06:00
; #@! TF.GenerationSoftware,Kicad,Pcbnew,8.0.4
; #@! TF.FileFunction,Plated,1,2,PTH
FMAT,2
METRIC
; #@! TA.AperFunction,Plated,PTH,ViaDrill
T1C0.400
; #@! TA.AperFunction,Plated,PTH,ComponentDrill
T2C0.750
; #@! TA.AperFunction,Plated,PTH,ComponentDrill
T3C0.762
; #@! TA.AperFunction,Plated,PTH,ComponentDrill
T4C0.800
; #@! TA.AperFunction,Plated,PTH,ComponentDrill
T5C0.950
; #@! TA.AperFunction,Plated,PTH,ComponentDrill
T6C1.000
; #@! TA.AperFunction,Plated,PTH,ComponentDrill
T7C1.100
; #@! TA.AperFunction,Plated,PTH,ComponentDrill
T8C1.300
; #@! TA.AperFunction,Plated,PTH,ComponentDrill
T9C1.520
; #@! TA.AperFunction,Plated,PTH,ComponentDrill
T10C1.800
%
G90
G05
T1
X49.5Y-34.0
X49.5Y-69.5
X52.0Y-56.5
X60.5Y-55.54
X62.0Y-64.5
X66.5Y-59.5
X77.5Y-64.4
X97.0Y-53.0
X101.5Y-60.0
T2
X54.0Y-67.5
X56.0Y-67.5
X58.0Y-67.5
X60.0Y-67.5
X62.0Y-67.5
X64.0Y-67.5
X66.0Y-67.5
X68.0Y-67.5
T3
X44.5Y-35.22
X44.5Y-40.3
X44.5Y-53.0
X44.5Y-55.54
T4
X52.92Y-43.18
X52.92Y-50.8
X55.46Y-43.18
X55.46Y-50.8
X58.0Y-43.18
X58.0Y-50.8
X67.0Y-22.42
X67.0Y-32.58
X94.5Y-22.34
X94.5Y-32.5
X102.96Y-43.0
X102.96Y-50.62
X105.5Y-43.0
X105.5Y-50.62
X108.04Y-43.0
X108.04Y-50.62
T5
X39.5Y-62.0
X39.5Y-64.5
X39.5Y-67.0
T6
X20.0Y-57.5
X21.0Y-65.5
X21.0Y-68.0
X22.5Y-57.5
X30.5Y-63.5
X30.5Y-66.0
X49.0Y-66.5
X57.0Y-63.0
X62.0Y-58.5
X62.5Y-18.0
X62.5Y-28.0
X96.5Y-65.0
X98.0Y-24.0
X108.0Y-24.0
T7
X71.42Y-28.0
X73.96Y-28.0
X76.5Y-28.0
X108.055Y-29.96
X108.055Y-32.5
X108.055Y-35.04
T8
X74.0Y-32.5
X74.0Y-37.5
X74.0Y-57.5
X81.5Y-32.5
X81.5Y-37.5
X81.5Y-57.5
T9
X62.42Y-38.0
X67.5Y-38.0
X101.42Y-17.0
X106.5Y-17.0
T10
X52.5Y-20.08
X52.5Y-24.04
X52.5Y-28.0
M30
