G04 #@! TF.GenerationSoftware,KiCad,Pcbnew,8.0.4*
G04 #@! TF.CreationDate,2025-01-01T16:22:17-06:00*
G04 #@! TF.ProjectId,HVBoard,4856426f-6172-4642-9e6b-696361645f70,rev?*
G04 #@! TF.SameCoordinates,Original*
G04 #@! TF.FileFunction,Paste,Top*
G04 #@! TF.FilePolarity,Positive*
%FSLAX46Y46*%
G04 Gerber Fmt 4.6, Leading zero omitted, Abs format (unit mm)*
G04 Created by KiCad (PCBNEW 8.0.4) date 2025-01-01 16:22:17*
%MOMM*%
%LPD*%
G01*
G04 APERTURE LIST*
G04 Aperture macros list*
%AMRoundRect*
0 Rectangle with rounded corners*
0 $1 Rounding radius*
0 $2 $3 $4 $5 $6 $7 $8 $9 X,Y pos of 4 corners*
0 Add a 4 corners polygon primitive as box body*
4,1,4,$2,$3,$4,$5,$6,$7,$8,$9,$2,$3,0*
0 Add four circle primitives for the rounded corners*
1,1,$1+$1,$2,$3*
1,1,$1+$1,$4,$5*
1,1,$1+$1,$6,$7*
1,1,$1+$1,$8,$9*
0 Add four rect primitives between the rounded corners*
20,1,$1+$1,$2,$3,$4,$5,0*
20,1,$1+$1,$4,$5,$6,$7,0*
20,1,$1+$1,$6,$7,$8,$9,0*
20,1,$1+$1,$8,$9,$2,$3,0*%
G04 Aperture macros list end*
%ADD10RoundRect,0.237500X0.250000X0.237500X-0.250000X0.237500X-0.250000X-0.237500X0.250000X-0.237500X0*%
%ADD11RoundRect,0.237500X-0.237500X0.250000X-0.237500X-0.250000X0.237500X-0.250000X0.237500X0.250000X0*%
%ADD12RoundRect,0.237500X-0.250000X-0.237500X0.250000X-0.237500X0.250000X0.237500X-0.250000X0.237500X0*%
%ADD13RoundRect,0.225000X0.225000X0.375000X-0.225000X0.375000X-0.225000X-0.375000X0.225000X-0.375000X0*%
%ADD14RoundRect,0.237500X-0.287500X-0.237500X0.287500X-0.237500X0.287500X0.237500X-0.287500X0.237500X0*%
%ADD15RoundRect,0.237500X0.237500X-0.250000X0.237500X0.250000X-0.237500X0.250000X-0.237500X-0.250000X0*%
%ADD16RoundRect,0.150000X-0.150000X0.587500X-0.150000X-0.587500X0.150000X-0.587500X0.150000X0.587500X0*%
%ADD17RoundRect,0.250000X0.625000X-0.400000X0.625000X0.400000X-0.625000X0.400000X-0.625000X-0.400000X0*%
%ADD18RoundRect,0.150000X-0.587500X-0.150000X0.587500X-0.150000X0.587500X0.150000X-0.587500X0.150000X0*%
%ADD19R,0.640000X2.000000*%
%ADD20RoundRect,0.200000X-0.200000X-0.275000X0.200000X-0.275000X0.200000X0.275000X-0.200000X0.275000X0*%
%ADD21RoundRect,0.250000X0.400000X0.625000X-0.400000X0.625000X-0.400000X-0.625000X0.400000X-0.625000X0*%
%ADD22R,1.200000X1.200000*%
%ADD23RoundRect,0.218750X0.218750X0.256250X-0.218750X0.256250X-0.218750X-0.256250X0.218750X-0.256250X0*%
G04 APERTURE END LIST*
D10*
G04 #@! TO.C,R17*
X50000000Y-53000000D03*
X48175000Y-53000000D03*
G04 #@! TD*
D11*
G04 #@! TO.C,R4*
X50000000Y-56000000D03*
X50000000Y-57825000D03*
G04 #@! TD*
D12*
G04 #@! TO.C,R19*
X65675000Y-63000000D03*
X67500000Y-63000000D03*
G04 #@! TD*
D13*
G04 #@! TO.C,D1*
X81150000Y-62500000D03*
X77850000Y-62500000D03*
G04 #@! TD*
D14*
G04 #@! TO.C,F1*
X45750000Y-62000000D03*
X47500000Y-62000000D03*
G04 #@! TD*
D15*
G04 #@! TO.C,R15*
X101550000Y-58262500D03*
X101550000Y-56437500D03*
G04 #@! TD*
D16*
G04 #@! TO.C,Q6*
X105500000Y-53625000D03*
X103600000Y-53625000D03*
X104550000Y-55500000D03*
G04 #@! TD*
D12*
G04 #@! TO.C,R12*
X98087500Y-51000000D03*
X99912500Y-51000000D03*
G04 #@! TD*
D15*
G04 #@! TO.C,R7*
X53000000Y-54825000D03*
X53000000Y-53000000D03*
G04 #@! TD*
D17*
G04 #@! TO.C,R6*
X55500000Y-38050000D03*
X55500000Y-34950000D03*
G04 #@! TD*
D15*
G04 #@! TO.C,R1*
X71937500Y-68500000D03*
X71937500Y-66675000D03*
G04 #@! TD*
D18*
G04 #@! TO.C,Q4*
X58437500Y-55000000D03*
X56562500Y-55950000D03*
X56562500Y-54050000D03*
G04 #@! TD*
D13*
G04 #@! TO.C,D3*
X53150000Y-62000000D03*
X49850000Y-62000000D03*
G04 #@! TD*
D19*
G04 #@! TO.C,U1*
X50000000Y-44000000D03*
X47460000Y-44000000D03*
X47460000Y-50300000D03*
X50000000Y-50300000D03*
G04 #@! TD*
D15*
G04 #@! TO.C,R10*
X58000000Y-59412500D03*
X58000000Y-57587500D03*
G04 #@! TD*
D17*
G04 #@! TO.C,R5*
X47500000Y-37050000D03*
X47500000Y-33950000D03*
G04 #@! TD*
D18*
G04 #@! TO.C,Q1*
X73562500Y-62550000D03*
X73562500Y-64450000D03*
X75437500Y-63500000D03*
G04 #@! TD*
D20*
G04 #@! TO.C,R2*
X78350000Y-68000000D03*
X80000000Y-68000000D03*
G04 #@! TD*
D21*
G04 #@! TO.C,R11*
X101550000Y-38000000D03*
X98450000Y-38000000D03*
G04 #@! TD*
D17*
G04 #@! TO.C,R3*
X51000000Y-39550000D03*
X51000000Y-36450000D03*
G04 #@! TD*
D22*
G04 #@! TO.C,D2*
X45500000Y-65100000D03*
X45500000Y-67900000D03*
G04 #@! TD*
D23*
G04 #@! TO.C,D4*
X85287500Y-68000000D03*
X83712500Y-68000000D03*
G04 #@! TD*
D10*
G04 #@! TO.C,R18*
X63412500Y-63000000D03*
X61587500Y-63000000D03*
G04 #@! TD*
D17*
G04 #@! TO.C,R14*
X103000000Y-33550000D03*
X103000000Y-30450000D03*
G04 #@! TD*
M02*
