G04 #@! TF.GenerationSoftware,KiCad,Pcbnew,8.0.4*
G04 #@! TF.CreationDate,2025-01-01T16:22:17-06:00*
G04 #@! TF.ProjectId,HVBoard,4856426f-6172-4642-9e6b-696361645f70,rev?*
G04 #@! TF.SameCoordinates,Original*
G04 #@! TF.FileFunction,Legend,Bot*
G04 #@! TF.FilePolarity,Positive*
%FSLAX46Y46*%
G04 Gerber Fmt 4.6, Leading zero omitted, Abs format (unit mm)*
G04 Created by KiCad (PCBNEW 8.0.4) date 2025-01-01 16:22:17*
%MOMM*%
%LPD*%
G01*
G04 APERTURE LIST*
G04 Aperture macros list*
%AMRoundRect*
0 Rectangle with rounded corners*
0 $1 Rounding radius*
0 $2 $3 $4 $5 $6 $7 $8 $9 X,Y pos of 4 corners*
0 Add a 4 corners polygon primitive as box body*
4,1,4,$2,$3,$4,$5,$6,$7,$8,$9,$2,$3,0*
0 Add four circle primitives for the rounded corners*
1,1,$1+$1,$2,$3*
1,1,$1+$1,$4,$5*
1,1,$1+$1,$6,$7*
1,1,$1+$1,$8,$9*
0 Add four rect primitives between the rounded corners*
20,1,$1+$1,$2,$3,$4,$5,0*
20,1,$1+$1,$4,$5,$6,$7,0*
20,1,$1+$1,$6,$7,$8,$9,0*
20,1,$1+$1,$8,$9,$2,$3,0*%
G04 Aperture macros list end*
%ADD10C,0.500000*%
%ADD11C,2.000000*%
%ADD12C,0.250000*%
%ADD13C,0.100000*%
%ADD14C,0.150000*%
%ADD15C,0.120000*%
%ADD16C,1.500000*%
%ADD17C,3.200000*%
%ADD18R,3.000000X3.000000*%
%ADD19C,3.000000*%
%ADD20R,2.000000X1.905000*%
%ADD21O,2.000000X1.905000*%
%ADD22R,1.600000X1.600000*%
%ADD23O,1.600000X1.600000*%
%ADD24R,1.700000X1.700000*%
%ADD25C,1.600000*%
%ADD26C,1.200000*%
%ADD27RoundRect,0.250000X-0.750000X0.600000X-0.750000X-0.600000X0.750000X-0.600000X0.750000X0.600000X0*%
%ADD28O,2.000000X1.700000*%
%ADD29R,2.700000X2.700000*%
%ADD30C,2.700000*%
%ADD31RoundRect,0.250000X-0.600000X-0.750000X0.600000X-0.750000X0.600000X0.750000X-0.600000X0.750000X0*%
%ADD32O,1.700000X2.000000*%
%ADD33RoundRect,0.250000X-0.725000X0.600000X-0.725000X-0.600000X0.725000X-0.600000X0.725000X0.600000X0*%
%ADD34O,1.950000X1.700000*%
%ADD35C,2.000000*%
%ADD36R,2.000000X2.000000*%
%ADD37R,1.905000X2.000000*%
%ADD38O,1.905000X2.000000*%
%ADD39RoundRect,0.250000X-0.350000X-0.625000X0.350000X-0.625000X0.350000X0.625000X-0.350000X0.625000X0*%
%ADD40O,1.200000X1.750000*%
%ADD41RoundRect,0.250000X0.400000X0.625000X-0.400000X0.625000X-0.400000X-0.625000X0.400000X-0.625000X0*%
%ADD42R,1.524000X1.524000*%
G04 APERTURE END LIST*
D10*
X107750000Y-24250000D02*
X106500000Y-17000000D01*
X94500000Y-22500000D02*
X98000000Y-24000000D01*
X74000000Y-28000000D02*
X74000000Y-32500000D01*
X62500000Y-18000000D02*
X67000000Y-22500000D01*
X67000000Y-32500000D02*
X108000000Y-32500000D01*
D11*
X95500000Y-42000000D02*
X95500000Y-47000000D01*
D10*
X81500000Y-37500000D02*
X67500000Y-37500000D01*
X101500000Y-17000000D02*
X61500000Y-13500000D01*
D11*
X95500000Y-42000000D02*
X86500000Y-42000000D01*
X112000000Y-47000000D02*
X95500000Y-47000000D01*
X27500000Y-47000000D02*
X86500000Y-47000000D01*
X10750000Y-47000000D02*
X18250000Y-47000000D01*
X27500000Y-42000000D02*
X27500000Y-47000000D01*
D10*
X39500000Y-29500000D02*
X61500000Y-13500000D01*
D11*
X27500000Y-42000000D02*
X18500000Y-42000000D01*
D10*
X52500000Y-28000000D02*
X71500000Y-28000000D01*
D11*
X84500000Y-91500000D02*
X171500000Y-91500000D01*
X18500000Y-42000000D02*
X18500000Y-47000000D01*
D10*
X39500000Y-29500000D02*
X62500000Y-38000000D01*
D11*
X86500000Y-42000000D02*
X86500000Y-47000000D01*
D12*
X92928571Y-37022350D02*
X92928571Y-35022350D01*
X92928571Y-35974731D02*
X91785714Y-35974731D01*
X91785714Y-37022350D02*
X91785714Y-35022350D01*
X91119047Y-35022350D02*
X90452381Y-37022350D01*
X90452381Y-37022350D02*
X89785714Y-35022350D01*
X95547619Y-40242238D02*
X96690476Y-40242238D01*
X96119048Y-40242238D02*
X96119048Y-38242238D01*
X96119048Y-38242238D02*
X96309524Y-38527952D01*
X96309524Y-38527952D02*
X96500000Y-38718428D01*
X96500000Y-38718428D02*
X96690476Y-38813666D01*
X94785714Y-38432714D02*
X94690476Y-38337476D01*
X94690476Y-38337476D02*
X94500000Y-38242238D01*
X94500000Y-38242238D02*
X94023809Y-38242238D01*
X94023809Y-38242238D02*
X93833333Y-38337476D01*
X93833333Y-38337476D02*
X93738095Y-38432714D01*
X93738095Y-38432714D02*
X93642857Y-38623190D01*
X93642857Y-38623190D02*
X93642857Y-38813666D01*
X93642857Y-38813666D02*
X93738095Y-39099380D01*
X93738095Y-39099380D02*
X94880952Y-40242238D01*
X94880952Y-40242238D02*
X93642857Y-40242238D01*
X92404762Y-38242238D02*
X92214285Y-38242238D01*
X92214285Y-38242238D02*
X92023809Y-38337476D01*
X92023809Y-38337476D02*
X91928571Y-38432714D01*
X91928571Y-38432714D02*
X91833333Y-38623190D01*
X91833333Y-38623190D02*
X91738095Y-39004142D01*
X91738095Y-39004142D02*
X91738095Y-39480333D01*
X91738095Y-39480333D02*
X91833333Y-39861285D01*
X91833333Y-39861285D02*
X91928571Y-40051761D01*
X91928571Y-40051761D02*
X92023809Y-40147000D01*
X92023809Y-40147000D02*
X92214285Y-40242238D01*
X92214285Y-40242238D02*
X92404762Y-40242238D01*
X92404762Y-40242238D02*
X92595238Y-40147000D01*
X92595238Y-40147000D02*
X92690476Y-40051761D01*
X92690476Y-40051761D02*
X92785714Y-39861285D01*
X92785714Y-39861285D02*
X92880952Y-39480333D01*
X92880952Y-39480333D02*
X92880952Y-39004142D01*
X92880952Y-39004142D02*
X92785714Y-38623190D01*
X92785714Y-38623190D02*
X92690476Y-38432714D01*
X92690476Y-38432714D02*
X92595238Y-38337476D01*
X92595238Y-38337476D02*
X92404762Y-38242238D01*
X91166666Y-38242238D02*
X90500000Y-40242238D01*
X90500000Y-40242238D02*
X89833333Y-38242238D01*
X89261904Y-39670809D02*
X88309523Y-39670809D01*
X89452380Y-40242238D02*
X88785714Y-38242238D01*
X88785714Y-38242238D02*
X88119047Y-40242238D01*
X86309523Y-40051761D02*
X86404761Y-40147000D01*
X86404761Y-40147000D02*
X86690475Y-40242238D01*
X86690475Y-40242238D02*
X86880951Y-40242238D01*
X86880951Y-40242238D02*
X87166666Y-40147000D01*
X87166666Y-40147000D02*
X87357142Y-39956523D01*
X87357142Y-39956523D02*
X87452380Y-39766047D01*
X87452380Y-39766047D02*
X87547618Y-39385095D01*
X87547618Y-39385095D02*
X87547618Y-39099380D01*
X87547618Y-39099380D02*
X87452380Y-38718428D01*
X87452380Y-38718428D02*
X87357142Y-38527952D01*
X87357142Y-38527952D02*
X87166666Y-38337476D01*
X87166666Y-38337476D02*
X86880951Y-38242238D01*
X86880951Y-38242238D02*
X86690475Y-38242238D01*
X86690475Y-38242238D02*
X86404761Y-38337476D01*
X86404761Y-38337476D02*
X86309523Y-38432714D01*
X38859336Y-20302462D02*
X38859336Y-18302462D01*
X38859336Y-19254843D02*
X37716479Y-19254843D01*
X37716479Y-20302462D02*
X37716479Y-18302462D01*
X36764098Y-20302462D02*
X36764098Y-18302462D01*
X34764098Y-18397700D02*
X34954574Y-18302462D01*
X34954574Y-18302462D02*
X35240288Y-18302462D01*
X35240288Y-18302462D02*
X35526003Y-18397700D01*
X35526003Y-18397700D02*
X35716479Y-18588176D01*
X35716479Y-18588176D02*
X35811717Y-18778652D01*
X35811717Y-18778652D02*
X35906955Y-19159604D01*
X35906955Y-19159604D02*
X35906955Y-19445319D01*
X35906955Y-19445319D02*
X35811717Y-19826271D01*
X35811717Y-19826271D02*
X35716479Y-20016747D01*
X35716479Y-20016747D02*
X35526003Y-20207224D01*
X35526003Y-20207224D02*
X35240288Y-20302462D01*
X35240288Y-20302462D02*
X35049812Y-20302462D01*
X35049812Y-20302462D02*
X34764098Y-20207224D01*
X34764098Y-20207224D02*
X34668860Y-20111985D01*
X34668860Y-20111985D02*
X34668860Y-19445319D01*
X34668860Y-19445319D02*
X35049812Y-19445319D01*
X33811717Y-20302462D02*
X33811717Y-18302462D01*
X33811717Y-19254843D02*
X32668860Y-19254843D01*
X32668860Y-20302462D02*
X32668860Y-18302462D01*
X30478383Y-18302462D02*
X29811717Y-20302462D01*
X29811717Y-20302462D02*
X29145050Y-18302462D01*
X28097431Y-18302462D02*
X27716478Y-18302462D01*
X27716478Y-18302462D02*
X27526002Y-18397700D01*
X27526002Y-18397700D02*
X27335526Y-18588176D01*
X27335526Y-18588176D02*
X27240288Y-18969128D01*
X27240288Y-18969128D02*
X27240288Y-19635795D01*
X27240288Y-19635795D02*
X27335526Y-20016747D01*
X27335526Y-20016747D02*
X27526002Y-20207224D01*
X27526002Y-20207224D02*
X27716478Y-20302462D01*
X27716478Y-20302462D02*
X28097431Y-20302462D01*
X28097431Y-20302462D02*
X28287907Y-20207224D01*
X28287907Y-20207224D02*
X28478383Y-20016747D01*
X28478383Y-20016747D02*
X28573621Y-19635795D01*
X28573621Y-19635795D02*
X28573621Y-18969128D01*
X28573621Y-18969128D02*
X28478383Y-18588176D01*
X28478383Y-18588176D02*
X28287907Y-18397700D01*
X28287907Y-18397700D02*
X28097431Y-18302462D01*
X25430764Y-20302462D02*
X26383145Y-20302462D01*
X26383145Y-20302462D02*
X26383145Y-18302462D01*
X25049811Y-18302462D02*
X23906954Y-18302462D01*
X24478383Y-20302462D02*
X24478383Y-18302462D01*
X23335525Y-19731033D02*
X22383144Y-19731033D01*
X23526001Y-20302462D02*
X22859335Y-18302462D01*
X22859335Y-18302462D02*
X22192668Y-20302462D01*
X20478382Y-18397700D02*
X20668858Y-18302462D01*
X20668858Y-18302462D02*
X20954572Y-18302462D01*
X20954572Y-18302462D02*
X21240287Y-18397700D01*
X21240287Y-18397700D02*
X21430763Y-18588176D01*
X21430763Y-18588176D02*
X21526001Y-18778652D01*
X21526001Y-18778652D02*
X21621239Y-19159604D01*
X21621239Y-19159604D02*
X21621239Y-19445319D01*
X21621239Y-19445319D02*
X21526001Y-19826271D01*
X21526001Y-19826271D02*
X21430763Y-20016747D01*
X21430763Y-20016747D02*
X21240287Y-20207224D01*
X21240287Y-20207224D02*
X20954572Y-20302462D01*
X20954572Y-20302462D02*
X20764096Y-20302462D01*
X20764096Y-20302462D02*
X20478382Y-20207224D01*
X20478382Y-20207224D02*
X20383144Y-20111985D01*
X20383144Y-20111985D02*
X20383144Y-19445319D01*
X20383144Y-19445319D02*
X20764096Y-19445319D01*
X19526001Y-19254843D02*
X18859334Y-19254843D01*
X18573620Y-20302462D02*
X19526001Y-20302462D01*
X19526001Y-20302462D02*
X19526001Y-18302462D01*
X19526001Y-18302462D02*
X18573620Y-18302462D01*
X16192667Y-19540557D02*
X14668858Y-19540557D01*
X38859336Y-23522350D02*
X38859336Y-21522350D01*
X38859336Y-21522350D02*
X38383146Y-21522350D01*
X38383146Y-21522350D02*
X38097431Y-21617588D01*
X38097431Y-21617588D02*
X37906955Y-21808064D01*
X37906955Y-21808064D02*
X37811717Y-21998540D01*
X37811717Y-21998540D02*
X37716479Y-22379492D01*
X37716479Y-22379492D02*
X37716479Y-22665207D01*
X37716479Y-22665207D02*
X37811717Y-23046159D01*
X37811717Y-23046159D02*
X37906955Y-23236635D01*
X37906955Y-23236635D02*
X38097431Y-23427112D01*
X38097431Y-23427112D02*
X38383146Y-23522350D01*
X38383146Y-23522350D02*
X38859336Y-23522350D01*
X36478384Y-21522350D02*
X36097431Y-21522350D01*
X36097431Y-21522350D02*
X35906955Y-21617588D01*
X35906955Y-21617588D02*
X35716479Y-21808064D01*
X35716479Y-21808064D02*
X35621241Y-22189016D01*
X35621241Y-22189016D02*
X35621241Y-22855683D01*
X35621241Y-22855683D02*
X35716479Y-23236635D01*
X35716479Y-23236635D02*
X35906955Y-23427112D01*
X35906955Y-23427112D02*
X36097431Y-23522350D01*
X36097431Y-23522350D02*
X36478384Y-23522350D01*
X36478384Y-23522350D02*
X36668860Y-23427112D01*
X36668860Y-23427112D02*
X36859336Y-23236635D01*
X36859336Y-23236635D02*
X36954574Y-22855683D01*
X36954574Y-22855683D02*
X36954574Y-22189016D01*
X36954574Y-22189016D02*
X36859336Y-21808064D01*
X36859336Y-21808064D02*
X36668860Y-21617588D01*
X36668860Y-21617588D02*
X36478384Y-21522350D01*
X33240288Y-23522350D02*
X33240288Y-21522350D01*
X33240288Y-21522350D02*
X32097431Y-23522350D01*
X32097431Y-23522350D02*
X32097431Y-21522350D01*
X30764098Y-21522350D02*
X30383145Y-21522350D01*
X30383145Y-21522350D02*
X30192669Y-21617588D01*
X30192669Y-21617588D02*
X30002193Y-21808064D01*
X30002193Y-21808064D02*
X29906955Y-22189016D01*
X29906955Y-22189016D02*
X29906955Y-22855683D01*
X29906955Y-22855683D02*
X30002193Y-23236635D01*
X30002193Y-23236635D02*
X30192669Y-23427112D01*
X30192669Y-23427112D02*
X30383145Y-23522350D01*
X30383145Y-23522350D02*
X30764098Y-23522350D01*
X30764098Y-23522350D02*
X30954574Y-23427112D01*
X30954574Y-23427112D02*
X31145050Y-23236635D01*
X31145050Y-23236635D02*
X31240288Y-22855683D01*
X31240288Y-22855683D02*
X31240288Y-22189016D01*
X31240288Y-22189016D02*
X31145050Y-21808064D01*
X31145050Y-21808064D02*
X30954574Y-21617588D01*
X30954574Y-21617588D02*
X30764098Y-21522350D01*
X29335526Y-21522350D02*
X28192669Y-21522350D01*
X28764098Y-23522350D02*
X28764098Y-21522350D01*
X26287906Y-21522350D02*
X25145049Y-21522350D01*
X25716478Y-23522350D02*
X25716478Y-21522350D01*
X24097430Y-21522350D02*
X23716477Y-21522350D01*
X23716477Y-21522350D02*
X23526001Y-21617588D01*
X23526001Y-21617588D02*
X23335525Y-21808064D01*
X23335525Y-21808064D02*
X23240287Y-22189016D01*
X23240287Y-22189016D02*
X23240287Y-22855683D01*
X23240287Y-22855683D02*
X23335525Y-23236635D01*
X23335525Y-23236635D02*
X23526001Y-23427112D01*
X23526001Y-23427112D02*
X23716477Y-23522350D01*
X23716477Y-23522350D02*
X24097430Y-23522350D01*
X24097430Y-23522350D02*
X24287906Y-23427112D01*
X24287906Y-23427112D02*
X24478382Y-23236635D01*
X24478382Y-23236635D02*
X24573620Y-22855683D01*
X24573620Y-22855683D02*
X24573620Y-22189016D01*
X24573620Y-22189016D02*
X24478382Y-21808064D01*
X24478382Y-21808064D02*
X24287906Y-21617588D01*
X24287906Y-21617588D02*
X24097430Y-21522350D01*
X22383144Y-21522350D02*
X22383144Y-23141397D01*
X22383144Y-23141397D02*
X22287906Y-23331873D01*
X22287906Y-23331873D02*
X22192668Y-23427112D01*
X22192668Y-23427112D02*
X22002192Y-23522350D01*
X22002192Y-23522350D02*
X21621239Y-23522350D01*
X21621239Y-23522350D02*
X21430763Y-23427112D01*
X21430763Y-23427112D02*
X21335525Y-23331873D01*
X21335525Y-23331873D02*
X21240287Y-23141397D01*
X21240287Y-23141397D02*
X21240287Y-21522350D01*
X19145049Y-23331873D02*
X19240287Y-23427112D01*
X19240287Y-23427112D02*
X19526001Y-23522350D01*
X19526001Y-23522350D02*
X19716477Y-23522350D01*
X19716477Y-23522350D02*
X20002192Y-23427112D01*
X20002192Y-23427112D02*
X20192668Y-23236635D01*
X20192668Y-23236635D02*
X20287906Y-23046159D01*
X20287906Y-23046159D02*
X20383144Y-22665207D01*
X20383144Y-22665207D02*
X20383144Y-22379492D01*
X20383144Y-22379492D02*
X20287906Y-21998540D01*
X20287906Y-21998540D02*
X20192668Y-21808064D01*
X20192668Y-21808064D02*
X20002192Y-21617588D01*
X20002192Y-21617588D02*
X19716477Y-21522350D01*
X19716477Y-21522350D02*
X19526001Y-21522350D01*
X19526001Y-21522350D02*
X19240287Y-21617588D01*
X19240287Y-21617588D02*
X19145049Y-21712826D01*
X18287906Y-23522350D02*
X18287906Y-21522350D01*
X18287906Y-22474731D02*
X17145049Y-22474731D01*
X17145049Y-23522350D02*
X17145049Y-21522350D01*
X39049812Y-24742238D02*
X38573622Y-26742238D01*
X38573622Y-26742238D02*
X38192669Y-25313666D01*
X38192669Y-25313666D02*
X37811717Y-26742238D01*
X37811717Y-26742238D02*
X37335527Y-24742238D01*
X36573622Y-26742238D02*
X36573622Y-24742238D01*
X36573622Y-25694619D02*
X35430765Y-25694619D01*
X35430765Y-26742238D02*
X35430765Y-24742238D01*
X34478384Y-25694619D02*
X33811717Y-25694619D01*
X33526003Y-26742238D02*
X34478384Y-26742238D01*
X34478384Y-26742238D02*
X34478384Y-24742238D01*
X34478384Y-24742238D02*
X33526003Y-24742238D01*
X32668860Y-26742238D02*
X32668860Y-24742238D01*
X32668860Y-24742238D02*
X31526003Y-26742238D01*
X31526003Y-26742238D02*
X31526003Y-24742238D01*
X28097431Y-26742238D02*
X29049812Y-26742238D01*
X29049812Y-26742238D02*
X29049812Y-24742238D01*
X27430764Y-26742238D02*
X27430764Y-24742238D01*
X26764097Y-24742238D02*
X26097431Y-26742238D01*
X26097431Y-26742238D02*
X25430764Y-24742238D01*
X24764097Y-25694619D02*
X24097430Y-25694619D01*
X23811716Y-26742238D02*
X24764097Y-26742238D01*
X24764097Y-26742238D02*
X24764097Y-24742238D01*
X24764097Y-24742238D02*
X23811716Y-24742238D01*
X22954573Y-26551761D02*
X22859335Y-26647000D01*
X22859335Y-26647000D02*
X22954573Y-26742238D01*
X22954573Y-26742238D02*
X23049811Y-26647000D01*
X23049811Y-26647000D02*
X22954573Y-26551761D01*
X22954573Y-26551761D02*
X22954573Y-26742238D01*
X22954573Y-25980333D02*
X23049811Y-24837476D01*
X23049811Y-24837476D02*
X22954573Y-24742238D01*
X22954573Y-24742238D02*
X22859335Y-24837476D01*
X22859335Y-24837476D02*
X22954573Y-25980333D01*
X22954573Y-25980333D02*
X22954573Y-24742238D01*
D13*
X100434211Y-33705752D02*
X101196115Y-33991466D01*
X101196115Y-33991466D02*
X100434211Y-34277180D01*
X99958020Y-33991466D02*
X99196116Y-33991466D01*
X97958020Y-34372419D02*
X97958020Y-33372419D01*
X97958020Y-33848609D02*
X97386592Y-33848609D01*
X97386592Y-34372419D02*
X97386592Y-33372419D01*
X96910401Y-34372419D02*
X96910401Y-33705752D01*
X96910401Y-33372419D02*
X96958020Y-33420038D01*
X96958020Y-33420038D02*
X96910401Y-33467657D01*
X96910401Y-33467657D02*
X96862782Y-33420038D01*
X96862782Y-33420038D02*
X96910401Y-33372419D01*
X96910401Y-33372419D02*
X96910401Y-33467657D01*
X96005640Y-33705752D02*
X96005640Y-34515276D01*
X96005640Y-34515276D02*
X96053259Y-34610514D01*
X96053259Y-34610514D02*
X96100878Y-34658133D01*
X96100878Y-34658133D02*
X96196116Y-34705752D01*
X96196116Y-34705752D02*
X96338973Y-34705752D01*
X96338973Y-34705752D02*
X96434211Y-34658133D01*
X96005640Y-34324800D02*
X96100878Y-34372419D01*
X96100878Y-34372419D02*
X96291354Y-34372419D01*
X96291354Y-34372419D02*
X96386592Y-34324800D01*
X96386592Y-34324800D02*
X96434211Y-34277180D01*
X96434211Y-34277180D02*
X96481830Y-34181942D01*
X96481830Y-34181942D02*
X96481830Y-33896228D01*
X96481830Y-33896228D02*
X96434211Y-33800990D01*
X96434211Y-33800990D02*
X96386592Y-33753371D01*
X96386592Y-33753371D02*
X96291354Y-33705752D01*
X96291354Y-33705752D02*
X96100878Y-33705752D01*
X96100878Y-33705752D02*
X96005640Y-33753371D01*
X95529449Y-34372419D02*
X95529449Y-33372419D01*
X95100878Y-34372419D02*
X95100878Y-33848609D01*
X95100878Y-33848609D02*
X95148497Y-33753371D01*
X95148497Y-33753371D02*
X95243735Y-33705752D01*
X95243735Y-33705752D02*
X95386592Y-33705752D01*
X95386592Y-33705752D02*
X95481830Y-33753371D01*
X95481830Y-33753371D02*
X95529449Y-33800990D01*
X93434211Y-34324800D02*
X93529449Y-34372419D01*
X93529449Y-34372419D02*
X93719925Y-34372419D01*
X93719925Y-34372419D02*
X93815163Y-34324800D01*
X93815163Y-34324800D02*
X93862782Y-34277180D01*
X93862782Y-34277180D02*
X93910401Y-34181942D01*
X93910401Y-34181942D02*
X93910401Y-33896228D01*
X93910401Y-33896228D02*
X93862782Y-33800990D01*
X93862782Y-33800990D02*
X93815163Y-33753371D01*
X93815163Y-33753371D02*
X93719925Y-33705752D01*
X93719925Y-33705752D02*
X93529449Y-33705752D01*
X93529449Y-33705752D02*
X93434211Y-33753371D01*
X92577068Y-33705752D02*
X92577068Y-34372419D01*
X93005639Y-33705752D02*
X93005639Y-34229561D01*
X93005639Y-34229561D02*
X92958020Y-34324800D01*
X92958020Y-34324800D02*
X92862782Y-34372419D01*
X92862782Y-34372419D02*
X92719925Y-34372419D01*
X92719925Y-34372419D02*
X92624687Y-34324800D01*
X92624687Y-34324800D02*
X92577068Y-34277180D01*
X92100877Y-34372419D02*
X92100877Y-33705752D01*
X92100877Y-33896228D02*
X92053258Y-33800990D01*
X92053258Y-33800990D02*
X92005639Y-33753371D01*
X92005639Y-33753371D02*
X91910401Y-33705752D01*
X91910401Y-33705752D02*
X91815163Y-33705752D01*
X91481829Y-34372419D02*
X91481829Y-33705752D01*
X91481829Y-33896228D02*
X91434210Y-33800990D01*
X91434210Y-33800990D02*
X91386591Y-33753371D01*
X91386591Y-33753371D02*
X91291353Y-33705752D01*
X91291353Y-33705752D02*
X91196115Y-33705752D01*
X90481829Y-34324800D02*
X90577067Y-34372419D01*
X90577067Y-34372419D02*
X90767543Y-34372419D01*
X90767543Y-34372419D02*
X90862781Y-34324800D01*
X90862781Y-34324800D02*
X90910400Y-34229561D01*
X90910400Y-34229561D02*
X90910400Y-33848609D01*
X90910400Y-33848609D02*
X90862781Y-33753371D01*
X90862781Y-33753371D02*
X90767543Y-33705752D01*
X90767543Y-33705752D02*
X90577067Y-33705752D01*
X90577067Y-33705752D02*
X90481829Y-33753371D01*
X90481829Y-33753371D02*
X90434210Y-33848609D01*
X90434210Y-33848609D02*
X90434210Y-33943847D01*
X90434210Y-33943847D02*
X90910400Y-34039085D01*
X90005638Y-33705752D02*
X90005638Y-34372419D01*
X90005638Y-33800990D02*
X89958019Y-33753371D01*
X89958019Y-33753371D02*
X89862781Y-33705752D01*
X89862781Y-33705752D02*
X89719924Y-33705752D01*
X89719924Y-33705752D02*
X89624686Y-33753371D01*
X89624686Y-33753371D02*
X89577067Y-33848609D01*
X89577067Y-33848609D02*
X89577067Y-34372419D01*
X89243733Y-33705752D02*
X88862781Y-33705752D01*
X89100876Y-33372419D02*
X89100876Y-34229561D01*
X89100876Y-34229561D02*
X89053257Y-34324800D01*
X89053257Y-34324800D02*
X88958019Y-34372419D01*
X88958019Y-34372419D02*
X88862781Y-34372419D01*
X87767542Y-33705752D02*
X87767542Y-34705752D01*
X87767542Y-33753371D02*
X87672304Y-33705752D01*
X87672304Y-33705752D02*
X87481828Y-33705752D01*
X87481828Y-33705752D02*
X87386590Y-33753371D01*
X87386590Y-33753371D02*
X87338971Y-33800990D01*
X87338971Y-33800990D02*
X87291352Y-33896228D01*
X87291352Y-33896228D02*
X87291352Y-34181942D01*
X87291352Y-34181942D02*
X87338971Y-34277180D01*
X87338971Y-34277180D02*
X87386590Y-34324800D01*
X87386590Y-34324800D02*
X87481828Y-34372419D01*
X87481828Y-34372419D02*
X87672304Y-34372419D01*
X87672304Y-34372419D02*
X87767542Y-34324800D01*
X86434209Y-34372419D02*
X86434209Y-33848609D01*
X86434209Y-33848609D02*
X86481828Y-33753371D01*
X86481828Y-33753371D02*
X86577066Y-33705752D01*
X86577066Y-33705752D02*
X86767542Y-33705752D01*
X86767542Y-33705752D02*
X86862780Y-33753371D01*
X86434209Y-34324800D02*
X86529447Y-34372419D01*
X86529447Y-34372419D02*
X86767542Y-34372419D01*
X86767542Y-34372419D02*
X86862780Y-34324800D01*
X86862780Y-34324800D02*
X86910399Y-34229561D01*
X86910399Y-34229561D02*
X86910399Y-34134323D01*
X86910399Y-34134323D02*
X86862780Y-34039085D01*
X86862780Y-34039085D02*
X86767542Y-33991466D01*
X86767542Y-33991466D02*
X86529447Y-33991466D01*
X86529447Y-33991466D02*
X86434209Y-33943847D01*
X86100875Y-33705752D02*
X85719923Y-33705752D01*
X85958018Y-33372419D02*
X85958018Y-34229561D01*
X85958018Y-34229561D02*
X85910399Y-34324800D01*
X85910399Y-34324800D02*
X85815161Y-34372419D01*
X85815161Y-34372419D02*
X85719923Y-34372419D01*
X85386589Y-34372419D02*
X85386589Y-33372419D01*
X84958018Y-34372419D02*
X84958018Y-33848609D01*
X84958018Y-33848609D02*
X85005637Y-33753371D01*
X85005637Y-33753371D02*
X85100875Y-33705752D01*
X85100875Y-33705752D02*
X85243732Y-33705752D01*
X85243732Y-33705752D02*
X85338970Y-33753371D01*
X85338970Y-33753371D02*
X85386589Y-33800990D01*
X83719922Y-33991466D02*
X82958018Y-33991466D01*
X82481827Y-33705752D02*
X81719923Y-33991466D01*
X81719923Y-33991466D02*
X82481827Y-34277180D01*
X85434211Y-16205752D02*
X86196115Y-16491466D01*
X86196115Y-16491466D02*
X85434211Y-16777180D01*
X84958020Y-16491466D02*
X84196116Y-16491466D01*
X82958020Y-16872419D02*
X82958020Y-15872419D01*
X82958020Y-16348609D02*
X82386592Y-16348609D01*
X82386592Y-16872419D02*
X82386592Y-15872419D01*
X81910401Y-16872419D02*
X81910401Y-16205752D01*
X81910401Y-15872419D02*
X81958020Y-15920038D01*
X81958020Y-15920038D02*
X81910401Y-15967657D01*
X81910401Y-15967657D02*
X81862782Y-15920038D01*
X81862782Y-15920038D02*
X81910401Y-15872419D01*
X81910401Y-15872419D02*
X81910401Y-15967657D01*
X81005640Y-16205752D02*
X81005640Y-17015276D01*
X81005640Y-17015276D02*
X81053259Y-17110514D01*
X81053259Y-17110514D02*
X81100878Y-17158133D01*
X81100878Y-17158133D02*
X81196116Y-17205752D01*
X81196116Y-17205752D02*
X81338973Y-17205752D01*
X81338973Y-17205752D02*
X81434211Y-17158133D01*
X81005640Y-16824800D02*
X81100878Y-16872419D01*
X81100878Y-16872419D02*
X81291354Y-16872419D01*
X81291354Y-16872419D02*
X81386592Y-16824800D01*
X81386592Y-16824800D02*
X81434211Y-16777180D01*
X81434211Y-16777180D02*
X81481830Y-16681942D01*
X81481830Y-16681942D02*
X81481830Y-16396228D01*
X81481830Y-16396228D02*
X81434211Y-16300990D01*
X81434211Y-16300990D02*
X81386592Y-16253371D01*
X81386592Y-16253371D02*
X81291354Y-16205752D01*
X81291354Y-16205752D02*
X81100878Y-16205752D01*
X81100878Y-16205752D02*
X81005640Y-16253371D01*
X80529449Y-16872419D02*
X80529449Y-15872419D01*
X80100878Y-16872419D02*
X80100878Y-16348609D01*
X80100878Y-16348609D02*
X80148497Y-16253371D01*
X80148497Y-16253371D02*
X80243735Y-16205752D01*
X80243735Y-16205752D02*
X80386592Y-16205752D01*
X80386592Y-16205752D02*
X80481830Y-16253371D01*
X80481830Y-16253371D02*
X80529449Y-16300990D01*
X78434211Y-16824800D02*
X78529449Y-16872419D01*
X78529449Y-16872419D02*
X78719925Y-16872419D01*
X78719925Y-16872419D02*
X78815163Y-16824800D01*
X78815163Y-16824800D02*
X78862782Y-16777180D01*
X78862782Y-16777180D02*
X78910401Y-16681942D01*
X78910401Y-16681942D02*
X78910401Y-16396228D01*
X78910401Y-16396228D02*
X78862782Y-16300990D01*
X78862782Y-16300990D02*
X78815163Y-16253371D01*
X78815163Y-16253371D02*
X78719925Y-16205752D01*
X78719925Y-16205752D02*
X78529449Y-16205752D01*
X78529449Y-16205752D02*
X78434211Y-16253371D01*
X77577068Y-16205752D02*
X77577068Y-16872419D01*
X78005639Y-16205752D02*
X78005639Y-16729561D01*
X78005639Y-16729561D02*
X77958020Y-16824800D01*
X77958020Y-16824800D02*
X77862782Y-16872419D01*
X77862782Y-16872419D02*
X77719925Y-16872419D01*
X77719925Y-16872419D02*
X77624687Y-16824800D01*
X77624687Y-16824800D02*
X77577068Y-16777180D01*
X77100877Y-16872419D02*
X77100877Y-16205752D01*
X77100877Y-16396228D02*
X77053258Y-16300990D01*
X77053258Y-16300990D02*
X77005639Y-16253371D01*
X77005639Y-16253371D02*
X76910401Y-16205752D01*
X76910401Y-16205752D02*
X76815163Y-16205752D01*
X76481829Y-16872419D02*
X76481829Y-16205752D01*
X76481829Y-16396228D02*
X76434210Y-16300990D01*
X76434210Y-16300990D02*
X76386591Y-16253371D01*
X76386591Y-16253371D02*
X76291353Y-16205752D01*
X76291353Y-16205752D02*
X76196115Y-16205752D01*
X75481829Y-16824800D02*
X75577067Y-16872419D01*
X75577067Y-16872419D02*
X75767543Y-16872419D01*
X75767543Y-16872419D02*
X75862781Y-16824800D01*
X75862781Y-16824800D02*
X75910400Y-16729561D01*
X75910400Y-16729561D02*
X75910400Y-16348609D01*
X75910400Y-16348609D02*
X75862781Y-16253371D01*
X75862781Y-16253371D02*
X75767543Y-16205752D01*
X75767543Y-16205752D02*
X75577067Y-16205752D01*
X75577067Y-16205752D02*
X75481829Y-16253371D01*
X75481829Y-16253371D02*
X75434210Y-16348609D01*
X75434210Y-16348609D02*
X75434210Y-16443847D01*
X75434210Y-16443847D02*
X75910400Y-16539085D01*
X75005638Y-16205752D02*
X75005638Y-16872419D01*
X75005638Y-16300990D02*
X74958019Y-16253371D01*
X74958019Y-16253371D02*
X74862781Y-16205752D01*
X74862781Y-16205752D02*
X74719924Y-16205752D01*
X74719924Y-16205752D02*
X74624686Y-16253371D01*
X74624686Y-16253371D02*
X74577067Y-16348609D01*
X74577067Y-16348609D02*
X74577067Y-16872419D01*
X74243733Y-16205752D02*
X73862781Y-16205752D01*
X74100876Y-15872419D02*
X74100876Y-16729561D01*
X74100876Y-16729561D02*
X74053257Y-16824800D01*
X74053257Y-16824800D02*
X73958019Y-16872419D01*
X73958019Y-16872419D02*
X73862781Y-16872419D01*
X72767542Y-16205752D02*
X72767542Y-17205752D01*
X72767542Y-16253371D02*
X72672304Y-16205752D01*
X72672304Y-16205752D02*
X72481828Y-16205752D01*
X72481828Y-16205752D02*
X72386590Y-16253371D01*
X72386590Y-16253371D02*
X72338971Y-16300990D01*
X72338971Y-16300990D02*
X72291352Y-16396228D01*
X72291352Y-16396228D02*
X72291352Y-16681942D01*
X72291352Y-16681942D02*
X72338971Y-16777180D01*
X72338971Y-16777180D02*
X72386590Y-16824800D01*
X72386590Y-16824800D02*
X72481828Y-16872419D01*
X72481828Y-16872419D02*
X72672304Y-16872419D01*
X72672304Y-16872419D02*
X72767542Y-16824800D01*
X71434209Y-16872419D02*
X71434209Y-16348609D01*
X71434209Y-16348609D02*
X71481828Y-16253371D01*
X71481828Y-16253371D02*
X71577066Y-16205752D01*
X71577066Y-16205752D02*
X71767542Y-16205752D01*
X71767542Y-16205752D02*
X71862780Y-16253371D01*
X71434209Y-16824800D02*
X71529447Y-16872419D01*
X71529447Y-16872419D02*
X71767542Y-16872419D01*
X71767542Y-16872419D02*
X71862780Y-16824800D01*
X71862780Y-16824800D02*
X71910399Y-16729561D01*
X71910399Y-16729561D02*
X71910399Y-16634323D01*
X71910399Y-16634323D02*
X71862780Y-16539085D01*
X71862780Y-16539085D02*
X71767542Y-16491466D01*
X71767542Y-16491466D02*
X71529447Y-16491466D01*
X71529447Y-16491466D02*
X71434209Y-16443847D01*
X71100875Y-16205752D02*
X70719923Y-16205752D01*
X70958018Y-15872419D02*
X70958018Y-16729561D01*
X70958018Y-16729561D02*
X70910399Y-16824800D01*
X70910399Y-16824800D02*
X70815161Y-16872419D01*
X70815161Y-16872419D02*
X70719923Y-16872419D01*
X70386589Y-16872419D02*
X70386589Y-15872419D01*
X69958018Y-16872419D02*
X69958018Y-16348609D01*
X69958018Y-16348609D02*
X70005637Y-16253371D01*
X70005637Y-16253371D02*
X70100875Y-16205752D01*
X70100875Y-16205752D02*
X70243732Y-16205752D01*
X70243732Y-16205752D02*
X70338970Y-16253371D01*
X70338970Y-16253371D02*
X70386589Y-16300990D01*
X68719922Y-16491466D02*
X67958018Y-16491466D01*
X67481827Y-16205752D02*
X66719923Y-16491466D01*
X66719923Y-16491466D02*
X67481827Y-16777180D01*
D12*
X93380952Y-51522350D02*
X94333333Y-51522350D01*
X94333333Y-51522350D02*
X94428571Y-52474731D01*
X94428571Y-52474731D02*
X94333333Y-52379492D01*
X94333333Y-52379492D02*
X94142857Y-52284254D01*
X94142857Y-52284254D02*
X93666666Y-52284254D01*
X93666666Y-52284254D02*
X93476190Y-52379492D01*
X93476190Y-52379492D02*
X93380952Y-52474731D01*
X93380952Y-52474731D02*
X93285714Y-52665207D01*
X93285714Y-52665207D02*
X93285714Y-53141397D01*
X93285714Y-53141397D02*
X93380952Y-53331873D01*
X93380952Y-53331873D02*
X93476190Y-53427112D01*
X93476190Y-53427112D02*
X93666666Y-53522350D01*
X93666666Y-53522350D02*
X94142857Y-53522350D01*
X94142857Y-53522350D02*
X94333333Y-53427112D01*
X94333333Y-53427112D02*
X94428571Y-53331873D01*
X92714285Y-51522350D02*
X92047619Y-53522350D01*
X92047619Y-53522350D02*
X91380952Y-51522350D01*
X90714285Y-53522350D02*
X90714285Y-51522350D01*
X90714285Y-51522350D02*
X90238095Y-51522350D01*
X90238095Y-51522350D02*
X89952380Y-51617588D01*
X89952380Y-51617588D02*
X89761904Y-51808064D01*
X89761904Y-51808064D02*
X89666666Y-51998540D01*
X89666666Y-51998540D02*
X89571428Y-52379492D01*
X89571428Y-52379492D02*
X89571428Y-52665207D01*
X89571428Y-52665207D02*
X89666666Y-53046159D01*
X89666666Y-53046159D02*
X89761904Y-53236635D01*
X89761904Y-53236635D02*
X89952380Y-53427112D01*
X89952380Y-53427112D02*
X90238095Y-53522350D01*
X90238095Y-53522350D02*
X90714285Y-53522350D01*
X87571428Y-53331873D02*
X87666666Y-53427112D01*
X87666666Y-53427112D02*
X87952380Y-53522350D01*
X87952380Y-53522350D02*
X88142856Y-53522350D01*
X88142856Y-53522350D02*
X88428571Y-53427112D01*
X88428571Y-53427112D02*
X88619047Y-53236635D01*
X88619047Y-53236635D02*
X88714285Y-53046159D01*
X88714285Y-53046159D02*
X88809523Y-52665207D01*
X88809523Y-52665207D02*
X88809523Y-52379492D01*
X88809523Y-52379492D02*
X88714285Y-51998540D01*
X88714285Y-51998540D02*
X88619047Y-51808064D01*
X88619047Y-51808064D02*
X88428571Y-51617588D01*
X88428571Y-51617588D02*
X88142856Y-51522350D01*
X88142856Y-51522350D02*
X87952380Y-51522350D01*
X87952380Y-51522350D02*
X87666666Y-51617588D01*
X87666666Y-51617588D02*
X87571428Y-51712826D01*
X91238095Y-56742238D02*
X92190476Y-56742238D01*
X92190476Y-56742238D02*
X92190476Y-54742238D01*
X90857142Y-54742238D02*
X90190476Y-56742238D01*
X90190476Y-56742238D02*
X89523809Y-54742238D01*
D14*
X74116666Y-19134819D02*
X74449999Y-18658628D01*
X74688094Y-19134819D02*
X74688094Y-18134819D01*
X74688094Y-18134819D02*
X74307142Y-18134819D01*
X74307142Y-18134819D02*
X74211904Y-18182438D01*
X74211904Y-18182438D02*
X74164285Y-18230057D01*
X74164285Y-18230057D02*
X74116666Y-18325295D01*
X74116666Y-18325295D02*
X74116666Y-18468152D01*
X74116666Y-18468152D02*
X74164285Y-18563390D01*
X74164285Y-18563390D02*
X74211904Y-18611009D01*
X74211904Y-18611009D02*
X74307142Y-18658628D01*
X74307142Y-18658628D02*
X74688094Y-18658628D01*
X73640475Y-19134819D02*
X73449999Y-19134819D01*
X73449999Y-19134819D02*
X73354761Y-19087200D01*
X73354761Y-19087200D02*
X73307142Y-19039580D01*
X73307142Y-19039580D02*
X73211904Y-18896723D01*
X73211904Y-18896723D02*
X73164285Y-18706247D01*
X73164285Y-18706247D02*
X73164285Y-18325295D01*
X73164285Y-18325295D02*
X73211904Y-18230057D01*
X73211904Y-18230057D02*
X73259523Y-18182438D01*
X73259523Y-18182438D02*
X73354761Y-18134819D01*
X73354761Y-18134819D02*
X73545237Y-18134819D01*
X73545237Y-18134819D02*
X73640475Y-18182438D01*
X73640475Y-18182438D02*
X73688094Y-18230057D01*
X73688094Y-18230057D02*
X73735713Y-18325295D01*
X73735713Y-18325295D02*
X73735713Y-18563390D01*
X73735713Y-18563390D02*
X73688094Y-18658628D01*
X73688094Y-18658628D02*
X73640475Y-18706247D01*
X73640475Y-18706247D02*
X73545237Y-18753866D01*
X73545237Y-18753866D02*
X73354761Y-18753866D01*
X73354761Y-18753866D02*
X73259523Y-18706247D01*
X73259523Y-18706247D02*
X73211904Y-18658628D01*
X73211904Y-18658628D02*
X73164285Y-18563390D01*
D15*
G04 #@! TO.C,H2*
X62450000Y-13500000D02*
G75*
G02*
X60550000Y-13500000I-950000J0D01*
G01*
X60550000Y-13500000D02*
G75*
G02*
X62450000Y-13500000I950000J0D01*
G01*
G04 #@! TO.C,H1*
X40950000Y-29500000D02*
G75*
G02*
X39050000Y-29500000I-950000J0D01*
G01*
X39050000Y-29500000D02*
G75*
G02*
X40950000Y-29500000I950000J0D01*
G01*
G04 #@! TO.C,R9*
X73222936Y-19590000D02*
X74677064Y-19590000D01*
X73222936Y-21410000D02*
X74677064Y-21410000D01*
G04 #@! TD*
%LPC*%
D16*
G04 #@! TO.C,H2*
X61500000Y-13500000D03*
G04 #@! TD*
G04 #@! TO.C,H1*
X40000000Y-29500000D03*
G04 #@! TD*
D17*
G04 #@! TO.C,H6*
X91000000Y-47000000D03*
G04 #@! TD*
G04 #@! TO.C,H5*
X23000000Y-47000000D03*
G04 #@! TD*
D18*
G04 #@! TO.C,J7*
X62420000Y-38000000D03*
D19*
X67500000Y-38000000D03*
G04 #@! TD*
D20*
G04 #@! TO.C,Q5*
X108055000Y-29960000D03*
D21*
X108055000Y-32500000D03*
X108055000Y-35040000D03*
G04 #@! TD*
D22*
G04 #@! TO.C,U2*
X52920000Y-50800000D03*
D23*
X55460000Y-50800000D03*
X58000000Y-50800000D03*
X58000000Y-43180000D03*
X55460000Y-43180000D03*
X52920000Y-43180000D03*
G04 #@! TD*
D24*
G04 #@! TO.C,TP3*
X96500000Y-65000000D03*
G04 #@! TD*
D25*
G04 #@! TO.C,R8*
X67000000Y-32580000D03*
D23*
X67000000Y-22420000D03*
G04 #@! TD*
D26*
G04 #@! TO.C,J5*
X28500000Y-61900000D03*
D27*
X30500000Y-63500000D03*
D28*
X30500000Y-66000000D03*
G04 #@! TD*
D29*
G04 #@! TO.C,J3*
X52500000Y-28000000D03*
D30*
X52500000Y-24040000D03*
X52500000Y-20080000D03*
G04 #@! TD*
D26*
G04 #@! TO.C,J9*
X19000000Y-63900000D03*
D27*
X21000000Y-65500000D03*
D28*
X21000000Y-68000000D03*
G04 #@! TD*
D18*
G04 #@! TO.C,J8*
X106500000Y-17000000D03*
D19*
X101420000Y-17000000D03*
G04 #@! TD*
D26*
G04 #@! TO.C,J4*
X18400000Y-59500000D03*
D31*
X20000000Y-57500000D03*
D32*
X22500000Y-57500000D03*
G04 #@! TD*
D22*
G04 #@! TO.C,U3*
X102960000Y-50620000D03*
D23*
X105500000Y-50620000D03*
X108040000Y-50620000D03*
X108040000Y-43000000D03*
X105500000Y-43000000D03*
X102960000Y-43000000D03*
G04 #@! TD*
D26*
G04 #@! TO.C,J6*
X37500000Y-60400000D03*
D33*
X39500000Y-62000000D03*
D34*
X39500000Y-64500000D03*
X39500000Y-67000000D03*
G04 #@! TD*
D25*
G04 #@! TO.C,R13*
X94500000Y-32500000D03*
D23*
X94500000Y-22340000D03*
G04 #@! TD*
D24*
G04 #@! TO.C,TP6*
X49000000Y-66500000D03*
G04 #@! TD*
D35*
G04 #@! TO.C,K1*
X81500000Y-37500000D03*
X74000000Y-37500000D03*
X81500000Y-32500000D03*
X74000000Y-32500000D03*
D36*
X81500000Y-57500000D03*
D35*
X74000000Y-57500000D03*
G04 #@! TD*
D37*
G04 #@! TO.C,Q3*
X71420000Y-28000000D03*
D38*
X73960000Y-28000000D03*
X76500000Y-28000000D03*
G04 #@! TD*
D35*
G04 #@! TO.C,C3*
X62500000Y-18000000D03*
X62500000Y-28000000D03*
G04 #@! TD*
D24*
G04 #@! TO.C,TP2*
X62000000Y-58500000D03*
G04 #@! TD*
D39*
G04 #@! TO.C,J2*
X54000000Y-67500000D03*
D40*
X56000000Y-67500000D03*
X58000000Y-67500000D03*
X60000000Y-67500000D03*
X62000000Y-67500000D03*
X64000000Y-67500000D03*
X66000000Y-67500000D03*
X68000000Y-67500000D03*
G04 #@! TD*
D24*
G04 #@! TO.C,TP1*
X57000000Y-63000000D03*
G04 #@! TD*
D35*
G04 #@! TO.C,C1*
X98000000Y-24000000D03*
X108000000Y-24000000D03*
G04 #@! TD*
D41*
G04 #@! TO.C,R9*
X75500000Y-20500000D03*
X72400000Y-20500000D03*
G04 #@! TD*
D42*
G04 #@! TO.C,U4*
X44500000Y-35220000D03*
X44500000Y-40300000D03*
X44500000Y-53000000D03*
X44500000Y-55540000D03*
G04 #@! TD*
%LPD*%
M02*
