%TF.GenerationSoftware,KiCad,Pcbnew,8.0.4*%
%TF.CreationDate,2025-01-01T16:22:17-06:00*%
%TF.ProjectId,HVBoard,4856426f-6172-4642-9e6b-696361645f70,rev?*%
%TF.SameCoordinates,Original*%
%TF.FileFunction,Drillmap*%
%TF.FilePolarity,Positive*%
%FSLAX45Y45*%
G04 Gerber Fmt 4.5, Leading zero omitted, Abs format (unit mm)*
G04 Created by KiCad (PCBNEW 8.0.4) date 2025-01-01 16:22:17*
%MOMM*%
%LPD*%
G01*
G04 APERTURE LIST*
%ADD10C,0.050000*%
%ADD11C,0.100000*%
%ADD12C,0.200000*%
%ADD13C,0.120000*%
%ADD14C,0.320000*%
G04 APERTURE END LIST*
D10*
X10700000Y-1200000D02*
G75*
G02*
X11200000Y-1700000I0J-500000D01*
G01*
X1200000Y-6700000D02*
X1200000Y-1700000D01*
X10700000Y-7200000D02*
X1700000Y-7200000D01*
X11200000Y-6700000D02*
G75*
G02*
X10700000Y-7200000I-500000J0D01*
G01*
D11*
X600000Y550000D02*
X950000Y550000D01*
X950000Y150000D01*
X600000Y150000D01*
X600000Y550000D01*
D10*
X1700000Y-1200000D02*
X10700000Y-1200000D01*
X11200000Y-1700000D02*
X11200000Y-6700000D01*
D11*
X4650000Y-4550000D02*
X5050000Y-4550000D01*
X5050000Y-4850000D01*
X4650000Y-4850000D01*
X4650000Y-4550000D01*
D10*
X1700000Y-7200000D02*
G75*
G02*
X1200000Y-6700000I0J500000D01*
G01*
D11*
X5150000Y-4500000D02*
X5950000Y-4500000D01*
X5950000Y-4900000D01*
X5150000Y-4900000D01*
X5150000Y-4500000D01*
D10*
X1200000Y-1700000D02*
G75*
G02*
X1700000Y-1200000I500000J0D01*
G01*
D11*
X10150000Y-4500000D02*
X10950000Y-4500000D01*
X10950000Y-4900000D01*
X10150000Y-4900000D01*
X10150000Y-4500000D01*
D12*
D13*
X1780000Y-5890000D02*
X1900000Y-6010000D01*
X1900000Y-5890000D02*
X1780000Y-6010000D01*
X1840000Y-6330000D02*
X1960000Y-6450000D01*
X1960000Y-6330000D02*
X1840000Y-6450000D01*
X2790000Y-6130000D02*
X2910000Y-6250000D01*
X2910000Y-6130000D02*
X2790000Y-6250000D01*
X3690000Y-5980000D02*
X3810000Y-6100000D01*
X3810000Y-5980000D02*
X3690000Y-6100000D01*
D14*
X2460000Y-4700000D02*
G75*
G02*
X2140000Y-4700000I-160000J0D01*
G01*
X2140000Y-4700000D02*
G75*
G02*
X2460000Y-4700000I160000J0D01*
G01*
X9260000Y-4700000D02*
G75*
G02*
X8940000Y-4700000I-160000J0D01*
G01*
X8940000Y-4700000D02*
G75*
G02*
X9260000Y-4700000I160000J0D01*
G01*
D12*
X855777Y-7513984D02*
X855777Y-7313984D01*
X855777Y-7313984D02*
X903396Y-7313984D01*
X903396Y-7313984D02*
X931967Y-7323508D01*
X931967Y-7323508D02*
X951015Y-7342555D01*
X951015Y-7342555D02*
X960539Y-7361603D01*
X960539Y-7361603D02*
X970062Y-7399698D01*
X970062Y-7399698D02*
X970062Y-7428269D01*
X970062Y-7428269D02*
X960539Y-7466365D01*
X960539Y-7466365D02*
X951015Y-7485412D01*
X951015Y-7485412D02*
X931967Y-7504460D01*
X931967Y-7504460D02*
X903396Y-7513984D01*
X903396Y-7513984D02*
X855777Y-7513984D01*
X1055777Y-7513984D02*
X1055777Y-7380650D01*
X1055777Y-7418746D02*
X1065301Y-7399698D01*
X1065301Y-7399698D02*
X1074824Y-7390174D01*
X1074824Y-7390174D02*
X1093872Y-7380650D01*
X1093872Y-7380650D02*
X1112920Y-7380650D01*
X1179586Y-7513984D02*
X1179586Y-7380650D01*
X1179586Y-7313984D02*
X1170063Y-7323508D01*
X1170063Y-7323508D02*
X1179586Y-7333031D01*
X1179586Y-7333031D02*
X1189110Y-7323508D01*
X1189110Y-7323508D02*
X1179586Y-7313984D01*
X1179586Y-7313984D02*
X1179586Y-7333031D01*
X1303396Y-7513984D02*
X1284348Y-7504460D01*
X1284348Y-7504460D02*
X1274824Y-7485412D01*
X1274824Y-7485412D02*
X1274824Y-7313984D01*
X1408158Y-7513984D02*
X1389110Y-7504460D01*
X1389110Y-7504460D02*
X1379586Y-7485412D01*
X1379586Y-7485412D02*
X1379586Y-7313984D01*
X1636729Y-7513984D02*
X1636729Y-7313984D01*
X1636729Y-7313984D02*
X1703396Y-7456841D01*
X1703396Y-7456841D02*
X1770062Y-7313984D01*
X1770062Y-7313984D02*
X1770062Y-7513984D01*
X1951015Y-7513984D02*
X1951015Y-7409222D01*
X1951015Y-7409222D02*
X1941491Y-7390174D01*
X1941491Y-7390174D02*
X1922443Y-7380650D01*
X1922443Y-7380650D02*
X1884348Y-7380650D01*
X1884348Y-7380650D02*
X1865301Y-7390174D01*
X1951015Y-7504460D02*
X1931967Y-7513984D01*
X1931967Y-7513984D02*
X1884348Y-7513984D01*
X1884348Y-7513984D02*
X1865301Y-7504460D01*
X1865301Y-7504460D02*
X1855777Y-7485412D01*
X1855777Y-7485412D02*
X1855777Y-7466365D01*
X1855777Y-7466365D02*
X1865301Y-7447317D01*
X1865301Y-7447317D02*
X1884348Y-7437793D01*
X1884348Y-7437793D02*
X1931967Y-7437793D01*
X1931967Y-7437793D02*
X1951015Y-7428269D01*
X2046253Y-7380650D02*
X2046253Y-7580650D01*
X2046253Y-7390174D02*
X2065301Y-7380650D01*
X2065301Y-7380650D02*
X2103396Y-7380650D01*
X2103396Y-7380650D02*
X2122444Y-7390174D01*
X2122444Y-7390174D02*
X2131967Y-7399698D01*
X2131967Y-7399698D02*
X2141491Y-7418746D01*
X2141491Y-7418746D02*
X2141491Y-7475888D01*
X2141491Y-7475888D02*
X2131967Y-7494936D01*
X2131967Y-7494936D02*
X2122444Y-7504460D01*
X2122444Y-7504460D02*
X2103396Y-7513984D01*
X2103396Y-7513984D02*
X2065301Y-7513984D01*
X2065301Y-7513984D02*
X2046253Y-7504460D01*
X2227205Y-7494936D02*
X2236729Y-7504460D01*
X2236729Y-7504460D02*
X2227205Y-7513984D01*
X2227205Y-7513984D02*
X2217682Y-7504460D01*
X2217682Y-7504460D02*
X2227205Y-7494936D01*
X2227205Y-7494936D02*
X2227205Y-7513984D01*
X2227205Y-7390174D02*
X2236729Y-7399698D01*
X2236729Y-7399698D02*
X2227205Y-7409222D01*
X2227205Y-7409222D02*
X2217682Y-7399698D01*
X2217682Y-7399698D02*
X2227205Y-7390174D01*
X2227205Y-7390174D02*
X2227205Y-7409222D01*
D13*
X475000Y-7782500D02*
X595000Y-7902500D01*
X595000Y-7782500D02*
X475000Y-7902500D01*
D12*
X960539Y-7933984D02*
X846253Y-7933984D01*
X903396Y-7933984D02*
X903396Y-7733984D01*
X903396Y-7733984D02*
X884348Y-7762555D01*
X884348Y-7762555D02*
X865301Y-7781603D01*
X865301Y-7781603D02*
X846253Y-7791127D01*
X1046253Y-7914936D02*
X1055777Y-7924460D01*
X1055777Y-7924460D02*
X1046253Y-7933984D01*
X1046253Y-7933984D02*
X1036729Y-7924460D01*
X1036729Y-7924460D02*
X1046253Y-7914936D01*
X1046253Y-7914936D02*
X1046253Y-7933984D01*
X1131967Y-7753031D02*
X1141491Y-7743508D01*
X1141491Y-7743508D02*
X1160539Y-7733984D01*
X1160539Y-7733984D02*
X1208158Y-7733984D01*
X1208158Y-7733984D02*
X1227205Y-7743508D01*
X1227205Y-7743508D02*
X1236729Y-7753031D01*
X1236729Y-7753031D02*
X1246253Y-7772079D01*
X1246253Y-7772079D02*
X1246253Y-7791127D01*
X1246253Y-7791127D02*
X1236729Y-7819698D01*
X1236729Y-7819698D02*
X1122444Y-7933984D01*
X1122444Y-7933984D02*
X1246253Y-7933984D01*
X1370063Y-7733984D02*
X1389110Y-7733984D01*
X1389110Y-7733984D02*
X1408158Y-7743508D01*
X1408158Y-7743508D02*
X1417682Y-7753031D01*
X1417682Y-7753031D02*
X1427205Y-7772079D01*
X1427205Y-7772079D02*
X1436729Y-7810174D01*
X1436729Y-7810174D02*
X1436729Y-7857793D01*
X1436729Y-7857793D02*
X1427205Y-7895888D01*
X1427205Y-7895888D02*
X1417682Y-7914936D01*
X1417682Y-7914936D02*
X1408158Y-7924460D01*
X1408158Y-7924460D02*
X1389110Y-7933984D01*
X1389110Y-7933984D02*
X1370063Y-7933984D01*
X1370063Y-7933984D02*
X1351015Y-7924460D01*
X1351015Y-7924460D02*
X1341491Y-7914936D01*
X1341491Y-7914936D02*
X1331967Y-7895888D01*
X1331967Y-7895888D02*
X1322444Y-7857793D01*
X1322444Y-7857793D02*
X1322444Y-7810174D01*
X1322444Y-7810174D02*
X1331967Y-7772079D01*
X1331967Y-7772079D02*
X1341491Y-7753031D01*
X1341491Y-7753031D02*
X1351015Y-7743508D01*
X1351015Y-7743508D02*
X1370063Y-7733984D01*
X1560539Y-7733984D02*
X1579586Y-7733984D01*
X1579586Y-7733984D02*
X1598634Y-7743508D01*
X1598634Y-7743508D02*
X1608158Y-7753031D01*
X1608158Y-7753031D02*
X1617682Y-7772079D01*
X1617682Y-7772079D02*
X1627205Y-7810174D01*
X1627205Y-7810174D02*
X1627205Y-7857793D01*
X1627205Y-7857793D02*
X1617682Y-7895888D01*
X1617682Y-7895888D02*
X1608158Y-7914936D01*
X1608158Y-7914936D02*
X1598634Y-7924460D01*
X1598634Y-7924460D02*
X1579586Y-7933984D01*
X1579586Y-7933984D02*
X1560539Y-7933984D01*
X1560539Y-7933984D02*
X1541491Y-7924460D01*
X1541491Y-7924460D02*
X1531967Y-7914936D01*
X1531967Y-7914936D02*
X1522443Y-7895888D01*
X1522443Y-7895888D02*
X1512920Y-7857793D01*
X1512920Y-7857793D02*
X1512920Y-7810174D01*
X1512920Y-7810174D02*
X1522443Y-7772079D01*
X1522443Y-7772079D02*
X1531967Y-7753031D01*
X1531967Y-7753031D02*
X1541491Y-7743508D01*
X1541491Y-7743508D02*
X1560539Y-7733984D01*
X1712920Y-7933984D02*
X1712920Y-7800650D01*
X1712920Y-7819698D02*
X1722443Y-7810174D01*
X1722443Y-7810174D02*
X1741491Y-7800650D01*
X1741491Y-7800650D02*
X1770063Y-7800650D01*
X1770063Y-7800650D02*
X1789110Y-7810174D01*
X1789110Y-7810174D02*
X1798634Y-7829222D01*
X1798634Y-7829222D02*
X1798634Y-7933984D01*
X1798634Y-7829222D02*
X1808158Y-7810174D01*
X1808158Y-7810174D02*
X1827205Y-7800650D01*
X1827205Y-7800650D02*
X1855777Y-7800650D01*
X1855777Y-7800650D02*
X1874824Y-7810174D01*
X1874824Y-7810174D02*
X1884348Y-7829222D01*
X1884348Y-7829222D02*
X1884348Y-7933984D01*
X1979586Y-7933984D02*
X1979586Y-7800650D01*
X1979586Y-7819698D02*
X1989110Y-7810174D01*
X1989110Y-7810174D02*
X2008158Y-7800650D01*
X2008158Y-7800650D02*
X2036729Y-7800650D01*
X2036729Y-7800650D02*
X2055777Y-7810174D01*
X2055777Y-7810174D02*
X2065301Y-7829222D01*
X2065301Y-7829222D02*
X2065301Y-7933984D01*
X2065301Y-7829222D02*
X2074824Y-7810174D01*
X2074824Y-7810174D02*
X2093872Y-7800650D01*
X2093872Y-7800650D02*
X2122444Y-7800650D01*
X2122444Y-7800650D02*
X2141491Y-7810174D01*
X2141491Y-7810174D02*
X2151015Y-7829222D01*
X2151015Y-7829222D02*
X2151015Y-7933984D01*
X2541491Y-7724460D02*
X2370063Y-7981603D01*
X2798634Y-7733984D02*
X2817682Y-7733984D01*
X2817682Y-7733984D02*
X2836729Y-7743508D01*
X2836729Y-7743508D02*
X2846253Y-7753031D01*
X2846253Y-7753031D02*
X2855777Y-7772079D01*
X2855777Y-7772079D02*
X2865301Y-7810174D01*
X2865301Y-7810174D02*
X2865301Y-7857793D01*
X2865301Y-7857793D02*
X2855777Y-7895888D01*
X2855777Y-7895888D02*
X2846253Y-7914936D01*
X2846253Y-7914936D02*
X2836729Y-7924460D01*
X2836729Y-7924460D02*
X2817682Y-7933984D01*
X2817682Y-7933984D02*
X2798634Y-7933984D01*
X2798634Y-7933984D02*
X2779587Y-7924460D01*
X2779587Y-7924460D02*
X2770063Y-7914936D01*
X2770063Y-7914936D02*
X2760539Y-7895888D01*
X2760539Y-7895888D02*
X2751015Y-7857793D01*
X2751015Y-7857793D02*
X2751015Y-7810174D01*
X2751015Y-7810174D02*
X2760539Y-7772079D01*
X2760539Y-7772079D02*
X2770063Y-7753031D01*
X2770063Y-7753031D02*
X2779587Y-7743508D01*
X2779587Y-7743508D02*
X2798634Y-7733984D01*
X2951015Y-7914936D02*
X2960539Y-7924460D01*
X2960539Y-7924460D02*
X2951015Y-7933984D01*
X2951015Y-7933984D02*
X2941491Y-7924460D01*
X2941491Y-7924460D02*
X2951015Y-7914936D01*
X2951015Y-7914936D02*
X2951015Y-7933984D01*
X3084348Y-7733984D02*
X3103396Y-7733984D01*
X3103396Y-7733984D02*
X3122444Y-7743508D01*
X3122444Y-7743508D02*
X3131967Y-7753031D01*
X3131967Y-7753031D02*
X3141491Y-7772079D01*
X3141491Y-7772079D02*
X3151015Y-7810174D01*
X3151015Y-7810174D02*
X3151015Y-7857793D01*
X3151015Y-7857793D02*
X3141491Y-7895888D01*
X3141491Y-7895888D02*
X3131967Y-7914936D01*
X3131967Y-7914936D02*
X3122444Y-7924460D01*
X3122444Y-7924460D02*
X3103396Y-7933984D01*
X3103396Y-7933984D02*
X3084348Y-7933984D01*
X3084348Y-7933984D02*
X3065301Y-7924460D01*
X3065301Y-7924460D02*
X3055777Y-7914936D01*
X3055777Y-7914936D02*
X3046253Y-7895888D01*
X3046253Y-7895888D02*
X3036729Y-7857793D01*
X3036729Y-7857793D02*
X3036729Y-7810174D01*
X3036729Y-7810174D02*
X3046253Y-7772079D01*
X3046253Y-7772079D02*
X3055777Y-7753031D01*
X3055777Y-7753031D02*
X3065301Y-7743508D01*
X3065301Y-7743508D02*
X3084348Y-7733984D01*
X3322444Y-7800650D02*
X3322444Y-7933984D01*
X3274825Y-7724460D02*
X3227206Y-7867317D01*
X3227206Y-7867317D02*
X3351015Y-7867317D01*
X3408158Y-7733984D02*
X3541491Y-7733984D01*
X3541491Y-7733984D02*
X3455777Y-7933984D01*
X3608158Y-7753031D02*
X3617682Y-7743508D01*
X3617682Y-7743508D02*
X3636729Y-7733984D01*
X3636729Y-7733984D02*
X3684348Y-7733984D01*
X3684348Y-7733984D02*
X3703396Y-7743508D01*
X3703396Y-7743508D02*
X3712920Y-7753031D01*
X3712920Y-7753031D02*
X3722444Y-7772079D01*
X3722444Y-7772079D02*
X3722444Y-7791127D01*
X3722444Y-7791127D02*
X3712920Y-7819698D01*
X3712920Y-7819698D02*
X3598634Y-7933984D01*
X3598634Y-7933984D02*
X3722444Y-7933984D01*
X3798634Y-7733984D02*
X3798634Y-7772079D01*
X3874825Y-7733984D02*
X3874825Y-7772079D01*
X4170063Y-8010174D02*
X4160539Y-8000650D01*
X4160539Y-8000650D02*
X4141491Y-7972079D01*
X4141491Y-7972079D02*
X4131968Y-7953031D01*
X4131968Y-7953031D02*
X4122444Y-7924460D01*
X4122444Y-7924460D02*
X4112920Y-7876841D01*
X4112920Y-7876841D02*
X4112920Y-7838746D01*
X4112920Y-7838746D02*
X4122444Y-7791127D01*
X4122444Y-7791127D02*
X4131968Y-7762555D01*
X4131968Y-7762555D02*
X4141491Y-7743508D01*
X4141491Y-7743508D02*
X4160539Y-7714936D01*
X4160539Y-7714936D02*
X4170063Y-7705412D01*
X4331968Y-7800650D02*
X4331968Y-7933984D01*
X4284349Y-7724460D02*
X4236730Y-7867317D01*
X4236730Y-7867317D02*
X4360539Y-7867317D01*
X4589111Y-7933984D02*
X4589111Y-7733984D01*
X4674825Y-7933984D02*
X4674825Y-7829222D01*
X4674825Y-7829222D02*
X4665301Y-7810174D01*
X4665301Y-7810174D02*
X4646253Y-7800650D01*
X4646253Y-7800650D02*
X4617682Y-7800650D01*
X4617682Y-7800650D02*
X4598634Y-7810174D01*
X4598634Y-7810174D02*
X4589111Y-7819698D01*
X4798634Y-7933984D02*
X4779587Y-7924460D01*
X4779587Y-7924460D02*
X4770063Y-7914936D01*
X4770063Y-7914936D02*
X4760539Y-7895888D01*
X4760539Y-7895888D02*
X4760539Y-7838746D01*
X4760539Y-7838746D02*
X4770063Y-7819698D01*
X4770063Y-7819698D02*
X4779587Y-7810174D01*
X4779587Y-7810174D02*
X4798634Y-7800650D01*
X4798634Y-7800650D02*
X4827206Y-7800650D01*
X4827206Y-7800650D02*
X4846253Y-7810174D01*
X4846253Y-7810174D02*
X4855777Y-7819698D01*
X4855777Y-7819698D02*
X4865301Y-7838746D01*
X4865301Y-7838746D02*
X4865301Y-7895888D01*
X4865301Y-7895888D02*
X4855777Y-7914936D01*
X4855777Y-7914936D02*
X4846253Y-7924460D01*
X4846253Y-7924460D02*
X4827206Y-7933984D01*
X4827206Y-7933984D02*
X4798634Y-7933984D01*
X4979587Y-7933984D02*
X4960539Y-7924460D01*
X4960539Y-7924460D02*
X4951015Y-7905412D01*
X4951015Y-7905412D02*
X4951015Y-7733984D01*
X5131968Y-7924460D02*
X5112920Y-7933984D01*
X5112920Y-7933984D02*
X5074825Y-7933984D01*
X5074825Y-7933984D02*
X5055777Y-7924460D01*
X5055777Y-7924460D02*
X5046253Y-7905412D01*
X5046253Y-7905412D02*
X5046253Y-7829222D01*
X5046253Y-7829222D02*
X5055777Y-7810174D01*
X5055777Y-7810174D02*
X5074825Y-7800650D01*
X5074825Y-7800650D02*
X5112920Y-7800650D01*
X5112920Y-7800650D02*
X5131968Y-7810174D01*
X5131968Y-7810174D02*
X5141492Y-7829222D01*
X5141492Y-7829222D02*
X5141492Y-7848269D01*
X5141492Y-7848269D02*
X5046253Y-7867317D01*
X5217682Y-7924460D02*
X5236730Y-7933984D01*
X5236730Y-7933984D02*
X5274825Y-7933984D01*
X5274825Y-7933984D02*
X5293873Y-7924460D01*
X5293873Y-7924460D02*
X5303396Y-7905412D01*
X5303396Y-7905412D02*
X5303396Y-7895888D01*
X5303396Y-7895888D02*
X5293873Y-7876841D01*
X5293873Y-7876841D02*
X5274825Y-7867317D01*
X5274825Y-7867317D02*
X5246253Y-7867317D01*
X5246253Y-7867317D02*
X5227206Y-7857793D01*
X5227206Y-7857793D02*
X5217682Y-7838746D01*
X5217682Y-7838746D02*
X5217682Y-7829222D01*
X5217682Y-7829222D02*
X5227206Y-7810174D01*
X5227206Y-7810174D02*
X5246253Y-7800650D01*
X5246253Y-7800650D02*
X5274825Y-7800650D01*
X5274825Y-7800650D02*
X5293873Y-7810174D01*
X5370063Y-8010174D02*
X5379587Y-8000650D01*
X5379587Y-8000650D02*
X5398634Y-7972079D01*
X5398634Y-7972079D02*
X5408158Y-7953031D01*
X5408158Y-7953031D02*
X5417682Y-7924460D01*
X5417682Y-7924460D02*
X5427206Y-7876841D01*
X5427206Y-7876841D02*
X5427206Y-7838746D01*
X5427206Y-7838746D02*
X5417682Y-7791127D01*
X5417682Y-7791127D02*
X5408158Y-7762555D01*
X5408158Y-7762555D02*
X5398634Y-7743508D01*
X5398634Y-7743508D02*
X5379587Y-7714936D01*
X5379587Y-7714936D02*
X5370063Y-7705412D01*
X5731968Y-8010174D02*
X5722444Y-8000650D01*
X5722444Y-8000650D02*
X5703396Y-7972079D01*
X5703396Y-7972079D02*
X5693872Y-7953031D01*
X5693872Y-7953031D02*
X5684349Y-7924460D01*
X5684349Y-7924460D02*
X5674825Y-7876841D01*
X5674825Y-7876841D02*
X5674825Y-7838746D01*
X5674825Y-7838746D02*
X5684349Y-7791127D01*
X5684349Y-7791127D02*
X5693872Y-7762555D01*
X5693872Y-7762555D02*
X5703396Y-7743508D01*
X5703396Y-7743508D02*
X5722444Y-7714936D01*
X5722444Y-7714936D02*
X5731968Y-7705412D01*
X5808158Y-7800650D02*
X5808158Y-7933984D01*
X5808158Y-7819698D02*
X5817682Y-7810174D01*
X5817682Y-7810174D02*
X5836730Y-7800650D01*
X5836730Y-7800650D02*
X5865301Y-7800650D01*
X5865301Y-7800650D02*
X5884349Y-7810174D01*
X5884349Y-7810174D02*
X5893872Y-7829222D01*
X5893872Y-7829222D02*
X5893872Y-7933984D01*
X6017682Y-7933984D02*
X5998634Y-7924460D01*
X5998634Y-7924460D02*
X5989111Y-7914936D01*
X5989111Y-7914936D02*
X5979587Y-7895888D01*
X5979587Y-7895888D02*
X5979587Y-7838746D01*
X5979587Y-7838746D02*
X5989111Y-7819698D01*
X5989111Y-7819698D02*
X5998634Y-7810174D01*
X5998634Y-7810174D02*
X6017682Y-7800650D01*
X6017682Y-7800650D02*
X6046253Y-7800650D01*
X6046253Y-7800650D02*
X6065301Y-7810174D01*
X6065301Y-7810174D02*
X6074825Y-7819698D01*
X6074825Y-7819698D02*
X6084349Y-7838746D01*
X6084349Y-7838746D02*
X6084349Y-7895888D01*
X6084349Y-7895888D02*
X6074825Y-7914936D01*
X6074825Y-7914936D02*
X6065301Y-7924460D01*
X6065301Y-7924460D02*
X6046253Y-7933984D01*
X6046253Y-7933984D02*
X6017682Y-7933984D01*
X6141492Y-7800650D02*
X6217682Y-7800650D01*
X6170063Y-7733984D02*
X6170063Y-7905412D01*
X6170063Y-7905412D02*
X6179587Y-7924460D01*
X6179587Y-7924460D02*
X6198634Y-7933984D01*
X6198634Y-7933984D02*
X6217682Y-7933984D01*
X6436730Y-7800650D02*
X6436730Y-8000650D01*
X6436730Y-7810174D02*
X6455777Y-7800650D01*
X6455777Y-7800650D02*
X6493873Y-7800650D01*
X6493873Y-7800650D02*
X6512920Y-7810174D01*
X6512920Y-7810174D02*
X6522444Y-7819698D01*
X6522444Y-7819698D02*
X6531968Y-7838746D01*
X6531968Y-7838746D02*
X6531968Y-7895888D01*
X6531968Y-7895888D02*
X6522444Y-7914936D01*
X6522444Y-7914936D02*
X6512920Y-7924460D01*
X6512920Y-7924460D02*
X6493873Y-7933984D01*
X6493873Y-7933984D02*
X6455777Y-7933984D01*
X6455777Y-7933984D02*
X6436730Y-7924460D01*
X6646253Y-7933984D02*
X6627206Y-7924460D01*
X6627206Y-7924460D02*
X6617682Y-7905412D01*
X6617682Y-7905412D02*
X6617682Y-7733984D01*
X6808158Y-7933984D02*
X6808158Y-7829222D01*
X6808158Y-7829222D02*
X6798634Y-7810174D01*
X6798634Y-7810174D02*
X6779587Y-7800650D01*
X6779587Y-7800650D02*
X6741492Y-7800650D01*
X6741492Y-7800650D02*
X6722444Y-7810174D01*
X6808158Y-7924460D02*
X6789111Y-7933984D01*
X6789111Y-7933984D02*
X6741492Y-7933984D01*
X6741492Y-7933984D02*
X6722444Y-7924460D01*
X6722444Y-7924460D02*
X6712920Y-7905412D01*
X6712920Y-7905412D02*
X6712920Y-7886365D01*
X6712920Y-7886365D02*
X6722444Y-7867317D01*
X6722444Y-7867317D02*
X6741492Y-7857793D01*
X6741492Y-7857793D02*
X6789111Y-7857793D01*
X6789111Y-7857793D02*
X6808158Y-7848269D01*
X6874825Y-7800650D02*
X6951015Y-7800650D01*
X6903396Y-7733984D02*
X6903396Y-7905412D01*
X6903396Y-7905412D02*
X6912920Y-7924460D01*
X6912920Y-7924460D02*
X6931968Y-7933984D01*
X6931968Y-7933984D02*
X6951015Y-7933984D01*
X7093873Y-7924460D02*
X7074825Y-7933984D01*
X7074825Y-7933984D02*
X7036730Y-7933984D01*
X7036730Y-7933984D02*
X7017682Y-7924460D01*
X7017682Y-7924460D02*
X7008158Y-7905412D01*
X7008158Y-7905412D02*
X7008158Y-7829222D01*
X7008158Y-7829222D02*
X7017682Y-7810174D01*
X7017682Y-7810174D02*
X7036730Y-7800650D01*
X7036730Y-7800650D02*
X7074825Y-7800650D01*
X7074825Y-7800650D02*
X7093873Y-7810174D01*
X7093873Y-7810174D02*
X7103396Y-7829222D01*
X7103396Y-7829222D02*
X7103396Y-7848269D01*
X7103396Y-7848269D02*
X7008158Y-7867317D01*
X7274825Y-7933984D02*
X7274825Y-7733984D01*
X7274825Y-7924460D02*
X7255777Y-7933984D01*
X7255777Y-7933984D02*
X7217682Y-7933984D01*
X7217682Y-7933984D02*
X7198634Y-7924460D01*
X7198634Y-7924460D02*
X7189111Y-7914936D01*
X7189111Y-7914936D02*
X7179587Y-7895888D01*
X7179587Y-7895888D02*
X7179587Y-7838746D01*
X7179587Y-7838746D02*
X7189111Y-7819698D01*
X7189111Y-7819698D02*
X7198634Y-7810174D01*
X7198634Y-7810174D02*
X7217682Y-7800650D01*
X7217682Y-7800650D02*
X7255777Y-7800650D01*
X7255777Y-7800650D02*
X7274825Y-7810174D01*
X7351015Y-8010174D02*
X7360539Y-8000650D01*
X7360539Y-8000650D02*
X7379587Y-7972079D01*
X7379587Y-7972079D02*
X7389111Y-7953031D01*
X7389111Y-7953031D02*
X7398634Y-7924460D01*
X7398634Y-7924460D02*
X7408158Y-7876841D01*
X7408158Y-7876841D02*
X7408158Y-7838746D01*
X7408158Y-7838746D02*
X7398634Y-7791127D01*
X7398634Y-7791127D02*
X7389111Y-7762555D01*
X7389111Y-7762555D02*
X7379587Y-7743508D01*
X7379587Y-7743508D02*
X7360539Y-7714936D01*
X7360539Y-7714936D02*
X7351015Y-7705412D01*
X595000Y-8106500D02*
G75*
G02*
X395000Y-8106500I-100000J0D01*
G01*
X395000Y-8106500D02*
G75*
G02*
X595000Y-8106500I100000J0D01*
G01*
X836729Y-7997984D02*
X960539Y-7997984D01*
X960539Y-7997984D02*
X893872Y-8074174D01*
X893872Y-8074174D02*
X922443Y-8074174D01*
X922443Y-8074174D02*
X941491Y-8083698D01*
X941491Y-8083698D02*
X951015Y-8093222D01*
X951015Y-8093222D02*
X960539Y-8112269D01*
X960539Y-8112269D02*
X960539Y-8159888D01*
X960539Y-8159888D02*
X951015Y-8178936D01*
X951015Y-8178936D02*
X941491Y-8188460D01*
X941491Y-8188460D02*
X922443Y-8197984D01*
X922443Y-8197984D02*
X865301Y-8197984D01*
X865301Y-8197984D02*
X846253Y-8188460D01*
X846253Y-8188460D02*
X836729Y-8178936D01*
X1046253Y-8178936D02*
X1055777Y-8188460D01*
X1055777Y-8188460D02*
X1046253Y-8197984D01*
X1046253Y-8197984D02*
X1036729Y-8188460D01*
X1036729Y-8188460D02*
X1046253Y-8178936D01*
X1046253Y-8178936D02*
X1046253Y-8197984D01*
X1131967Y-8017031D02*
X1141491Y-8007508D01*
X1141491Y-8007508D02*
X1160539Y-7997984D01*
X1160539Y-7997984D02*
X1208158Y-7997984D01*
X1208158Y-7997984D02*
X1227205Y-8007508D01*
X1227205Y-8007508D02*
X1236729Y-8017031D01*
X1236729Y-8017031D02*
X1246253Y-8036079D01*
X1246253Y-8036079D02*
X1246253Y-8055127D01*
X1246253Y-8055127D02*
X1236729Y-8083698D01*
X1236729Y-8083698D02*
X1122444Y-8197984D01*
X1122444Y-8197984D02*
X1246253Y-8197984D01*
X1370063Y-7997984D02*
X1389110Y-7997984D01*
X1389110Y-7997984D02*
X1408158Y-8007508D01*
X1408158Y-8007508D02*
X1417682Y-8017031D01*
X1417682Y-8017031D02*
X1427205Y-8036079D01*
X1427205Y-8036079D02*
X1436729Y-8074174D01*
X1436729Y-8074174D02*
X1436729Y-8121793D01*
X1436729Y-8121793D02*
X1427205Y-8159888D01*
X1427205Y-8159888D02*
X1417682Y-8178936D01*
X1417682Y-8178936D02*
X1408158Y-8188460D01*
X1408158Y-8188460D02*
X1389110Y-8197984D01*
X1389110Y-8197984D02*
X1370063Y-8197984D01*
X1370063Y-8197984D02*
X1351015Y-8188460D01*
X1351015Y-8188460D02*
X1341491Y-8178936D01*
X1341491Y-8178936D02*
X1331967Y-8159888D01*
X1331967Y-8159888D02*
X1322444Y-8121793D01*
X1322444Y-8121793D02*
X1322444Y-8074174D01*
X1322444Y-8074174D02*
X1331967Y-8036079D01*
X1331967Y-8036079D02*
X1341491Y-8017031D01*
X1341491Y-8017031D02*
X1351015Y-8007508D01*
X1351015Y-8007508D02*
X1370063Y-7997984D01*
X1560539Y-7997984D02*
X1579586Y-7997984D01*
X1579586Y-7997984D02*
X1598634Y-8007508D01*
X1598634Y-8007508D02*
X1608158Y-8017031D01*
X1608158Y-8017031D02*
X1617682Y-8036079D01*
X1617682Y-8036079D02*
X1627205Y-8074174D01*
X1627205Y-8074174D02*
X1627205Y-8121793D01*
X1627205Y-8121793D02*
X1617682Y-8159888D01*
X1617682Y-8159888D02*
X1608158Y-8178936D01*
X1608158Y-8178936D02*
X1598634Y-8188460D01*
X1598634Y-8188460D02*
X1579586Y-8197984D01*
X1579586Y-8197984D02*
X1560539Y-8197984D01*
X1560539Y-8197984D02*
X1541491Y-8188460D01*
X1541491Y-8188460D02*
X1531967Y-8178936D01*
X1531967Y-8178936D02*
X1522443Y-8159888D01*
X1522443Y-8159888D02*
X1512920Y-8121793D01*
X1512920Y-8121793D02*
X1512920Y-8074174D01*
X1512920Y-8074174D02*
X1522443Y-8036079D01*
X1522443Y-8036079D02*
X1531967Y-8017031D01*
X1531967Y-8017031D02*
X1541491Y-8007508D01*
X1541491Y-8007508D02*
X1560539Y-7997984D01*
X1712920Y-8197984D02*
X1712920Y-8064650D01*
X1712920Y-8083698D02*
X1722443Y-8074174D01*
X1722443Y-8074174D02*
X1741491Y-8064650D01*
X1741491Y-8064650D02*
X1770063Y-8064650D01*
X1770063Y-8064650D02*
X1789110Y-8074174D01*
X1789110Y-8074174D02*
X1798634Y-8093222D01*
X1798634Y-8093222D02*
X1798634Y-8197984D01*
X1798634Y-8093222D02*
X1808158Y-8074174D01*
X1808158Y-8074174D02*
X1827205Y-8064650D01*
X1827205Y-8064650D02*
X1855777Y-8064650D01*
X1855777Y-8064650D02*
X1874824Y-8074174D01*
X1874824Y-8074174D02*
X1884348Y-8093222D01*
X1884348Y-8093222D02*
X1884348Y-8197984D01*
X1979586Y-8197984D02*
X1979586Y-8064650D01*
X1979586Y-8083698D02*
X1989110Y-8074174D01*
X1989110Y-8074174D02*
X2008158Y-8064650D01*
X2008158Y-8064650D02*
X2036729Y-8064650D01*
X2036729Y-8064650D02*
X2055777Y-8074174D01*
X2055777Y-8074174D02*
X2065301Y-8093222D01*
X2065301Y-8093222D02*
X2065301Y-8197984D01*
X2065301Y-8093222D02*
X2074824Y-8074174D01*
X2074824Y-8074174D02*
X2093872Y-8064650D01*
X2093872Y-8064650D02*
X2122444Y-8064650D01*
X2122444Y-8064650D02*
X2141491Y-8074174D01*
X2141491Y-8074174D02*
X2151015Y-8093222D01*
X2151015Y-8093222D02*
X2151015Y-8197984D01*
X2541491Y-7988460D02*
X2370063Y-8245603D01*
X2798634Y-7997984D02*
X2817682Y-7997984D01*
X2817682Y-7997984D02*
X2836729Y-8007508D01*
X2836729Y-8007508D02*
X2846253Y-8017031D01*
X2846253Y-8017031D02*
X2855777Y-8036079D01*
X2855777Y-8036079D02*
X2865301Y-8074174D01*
X2865301Y-8074174D02*
X2865301Y-8121793D01*
X2865301Y-8121793D02*
X2855777Y-8159888D01*
X2855777Y-8159888D02*
X2846253Y-8178936D01*
X2846253Y-8178936D02*
X2836729Y-8188460D01*
X2836729Y-8188460D02*
X2817682Y-8197984D01*
X2817682Y-8197984D02*
X2798634Y-8197984D01*
X2798634Y-8197984D02*
X2779587Y-8188460D01*
X2779587Y-8188460D02*
X2770063Y-8178936D01*
X2770063Y-8178936D02*
X2760539Y-8159888D01*
X2760539Y-8159888D02*
X2751015Y-8121793D01*
X2751015Y-8121793D02*
X2751015Y-8074174D01*
X2751015Y-8074174D02*
X2760539Y-8036079D01*
X2760539Y-8036079D02*
X2770063Y-8017031D01*
X2770063Y-8017031D02*
X2779587Y-8007508D01*
X2779587Y-8007508D02*
X2798634Y-7997984D01*
X2951015Y-8178936D02*
X2960539Y-8188460D01*
X2960539Y-8188460D02*
X2951015Y-8197984D01*
X2951015Y-8197984D02*
X2941491Y-8188460D01*
X2941491Y-8188460D02*
X2951015Y-8178936D01*
X2951015Y-8178936D02*
X2951015Y-8197984D01*
X3151015Y-8197984D02*
X3036729Y-8197984D01*
X3093872Y-8197984D02*
X3093872Y-7997984D01*
X3093872Y-7997984D02*
X3074825Y-8026555D01*
X3074825Y-8026555D02*
X3055777Y-8045603D01*
X3055777Y-8045603D02*
X3036729Y-8055127D01*
X3227206Y-8017031D02*
X3236729Y-8007508D01*
X3236729Y-8007508D02*
X3255777Y-7997984D01*
X3255777Y-7997984D02*
X3303396Y-7997984D01*
X3303396Y-7997984D02*
X3322444Y-8007508D01*
X3322444Y-8007508D02*
X3331967Y-8017031D01*
X3331967Y-8017031D02*
X3341491Y-8036079D01*
X3341491Y-8036079D02*
X3341491Y-8055127D01*
X3341491Y-8055127D02*
X3331967Y-8083698D01*
X3331967Y-8083698D02*
X3217682Y-8197984D01*
X3217682Y-8197984D02*
X3341491Y-8197984D01*
X3512920Y-7997984D02*
X3474825Y-7997984D01*
X3474825Y-7997984D02*
X3455777Y-8007508D01*
X3455777Y-8007508D02*
X3446253Y-8017031D01*
X3446253Y-8017031D02*
X3427206Y-8045603D01*
X3427206Y-8045603D02*
X3417682Y-8083698D01*
X3417682Y-8083698D02*
X3417682Y-8159888D01*
X3417682Y-8159888D02*
X3427206Y-8178936D01*
X3427206Y-8178936D02*
X3436729Y-8188460D01*
X3436729Y-8188460D02*
X3455777Y-8197984D01*
X3455777Y-8197984D02*
X3493872Y-8197984D01*
X3493872Y-8197984D02*
X3512920Y-8188460D01*
X3512920Y-8188460D02*
X3522444Y-8178936D01*
X3522444Y-8178936D02*
X3531967Y-8159888D01*
X3531967Y-8159888D02*
X3531967Y-8112269D01*
X3531967Y-8112269D02*
X3522444Y-8093222D01*
X3522444Y-8093222D02*
X3512920Y-8083698D01*
X3512920Y-8083698D02*
X3493872Y-8074174D01*
X3493872Y-8074174D02*
X3455777Y-8074174D01*
X3455777Y-8074174D02*
X3436729Y-8083698D01*
X3436729Y-8083698D02*
X3427206Y-8093222D01*
X3427206Y-8093222D02*
X3417682Y-8112269D01*
X3655777Y-7997984D02*
X3674825Y-7997984D01*
X3674825Y-7997984D02*
X3693872Y-8007508D01*
X3693872Y-8007508D02*
X3703396Y-8017031D01*
X3703396Y-8017031D02*
X3712920Y-8036079D01*
X3712920Y-8036079D02*
X3722444Y-8074174D01*
X3722444Y-8074174D02*
X3722444Y-8121793D01*
X3722444Y-8121793D02*
X3712920Y-8159888D01*
X3712920Y-8159888D02*
X3703396Y-8178936D01*
X3703396Y-8178936D02*
X3693872Y-8188460D01*
X3693872Y-8188460D02*
X3674825Y-8197984D01*
X3674825Y-8197984D02*
X3655777Y-8197984D01*
X3655777Y-8197984D02*
X3636729Y-8188460D01*
X3636729Y-8188460D02*
X3627206Y-8178936D01*
X3627206Y-8178936D02*
X3617682Y-8159888D01*
X3617682Y-8159888D02*
X3608158Y-8121793D01*
X3608158Y-8121793D02*
X3608158Y-8074174D01*
X3608158Y-8074174D02*
X3617682Y-8036079D01*
X3617682Y-8036079D02*
X3627206Y-8017031D01*
X3627206Y-8017031D02*
X3636729Y-8007508D01*
X3636729Y-8007508D02*
X3655777Y-7997984D01*
X3798634Y-7997984D02*
X3798634Y-8036079D01*
X3874825Y-7997984D02*
X3874825Y-8036079D01*
X4170063Y-8274174D02*
X4160539Y-8264650D01*
X4160539Y-8264650D02*
X4141491Y-8236079D01*
X4141491Y-8236079D02*
X4131968Y-8217031D01*
X4131968Y-8217031D02*
X4122444Y-8188460D01*
X4122444Y-8188460D02*
X4112920Y-8140841D01*
X4112920Y-8140841D02*
X4112920Y-8102746D01*
X4112920Y-8102746D02*
X4122444Y-8055127D01*
X4122444Y-8055127D02*
X4131968Y-8026555D01*
X4131968Y-8026555D02*
X4141491Y-8007508D01*
X4141491Y-8007508D02*
X4160539Y-7978936D01*
X4160539Y-7978936D02*
X4170063Y-7969412D01*
X4236730Y-8017031D02*
X4246253Y-8007508D01*
X4246253Y-8007508D02*
X4265301Y-7997984D01*
X4265301Y-7997984D02*
X4312920Y-7997984D01*
X4312920Y-7997984D02*
X4331968Y-8007508D01*
X4331968Y-8007508D02*
X4341491Y-8017031D01*
X4341491Y-8017031D02*
X4351015Y-8036079D01*
X4351015Y-8036079D02*
X4351015Y-8055127D01*
X4351015Y-8055127D02*
X4341491Y-8083698D01*
X4341491Y-8083698D02*
X4227206Y-8197984D01*
X4227206Y-8197984D02*
X4351015Y-8197984D01*
X4589111Y-8197984D02*
X4589111Y-7997984D01*
X4674825Y-8197984D02*
X4674825Y-8093222D01*
X4674825Y-8093222D02*
X4665301Y-8074174D01*
X4665301Y-8074174D02*
X4646253Y-8064650D01*
X4646253Y-8064650D02*
X4617682Y-8064650D01*
X4617682Y-8064650D02*
X4598634Y-8074174D01*
X4598634Y-8074174D02*
X4589111Y-8083698D01*
X4798634Y-8197984D02*
X4779587Y-8188460D01*
X4779587Y-8188460D02*
X4770063Y-8178936D01*
X4770063Y-8178936D02*
X4760539Y-8159888D01*
X4760539Y-8159888D02*
X4760539Y-8102746D01*
X4760539Y-8102746D02*
X4770063Y-8083698D01*
X4770063Y-8083698D02*
X4779587Y-8074174D01*
X4779587Y-8074174D02*
X4798634Y-8064650D01*
X4798634Y-8064650D02*
X4827206Y-8064650D01*
X4827206Y-8064650D02*
X4846253Y-8074174D01*
X4846253Y-8074174D02*
X4855777Y-8083698D01*
X4855777Y-8083698D02*
X4865301Y-8102746D01*
X4865301Y-8102746D02*
X4865301Y-8159888D01*
X4865301Y-8159888D02*
X4855777Y-8178936D01*
X4855777Y-8178936D02*
X4846253Y-8188460D01*
X4846253Y-8188460D02*
X4827206Y-8197984D01*
X4827206Y-8197984D02*
X4798634Y-8197984D01*
X4979587Y-8197984D02*
X4960539Y-8188460D01*
X4960539Y-8188460D02*
X4951015Y-8169412D01*
X4951015Y-8169412D02*
X4951015Y-7997984D01*
X5131968Y-8188460D02*
X5112920Y-8197984D01*
X5112920Y-8197984D02*
X5074825Y-8197984D01*
X5074825Y-8197984D02*
X5055777Y-8188460D01*
X5055777Y-8188460D02*
X5046253Y-8169412D01*
X5046253Y-8169412D02*
X5046253Y-8093222D01*
X5046253Y-8093222D02*
X5055777Y-8074174D01*
X5055777Y-8074174D02*
X5074825Y-8064650D01*
X5074825Y-8064650D02*
X5112920Y-8064650D01*
X5112920Y-8064650D02*
X5131968Y-8074174D01*
X5131968Y-8074174D02*
X5141492Y-8093222D01*
X5141492Y-8093222D02*
X5141492Y-8112269D01*
X5141492Y-8112269D02*
X5046253Y-8131317D01*
X5217682Y-8188460D02*
X5236730Y-8197984D01*
X5236730Y-8197984D02*
X5274825Y-8197984D01*
X5274825Y-8197984D02*
X5293873Y-8188460D01*
X5293873Y-8188460D02*
X5303396Y-8169412D01*
X5303396Y-8169412D02*
X5303396Y-8159888D01*
X5303396Y-8159888D02*
X5293873Y-8140841D01*
X5293873Y-8140841D02*
X5274825Y-8131317D01*
X5274825Y-8131317D02*
X5246253Y-8131317D01*
X5246253Y-8131317D02*
X5227206Y-8121793D01*
X5227206Y-8121793D02*
X5217682Y-8102746D01*
X5217682Y-8102746D02*
X5217682Y-8093222D01*
X5217682Y-8093222D02*
X5227206Y-8074174D01*
X5227206Y-8074174D02*
X5246253Y-8064650D01*
X5246253Y-8064650D02*
X5274825Y-8064650D01*
X5274825Y-8064650D02*
X5293873Y-8074174D01*
X5370063Y-8274174D02*
X5379587Y-8264650D01*
X5379587Y-8264650D02*
X5398634Y-8236079D01*
X5398634Y-8236079D02*
X5408158Y-8217031D01*
X5408158Y-8217031D02*
X5417682Y-8188460D01*
X5417682Y-8188460D02*
X5427206Y-8140841D01*
X5427206Y-8140841D02*
X5427206Y-8102746D01*
X5427206Y-8102746D02*
X5417682Y-8055127D01*
X5417682Y-8055127D02*
X5408158Y-8026555D01*
X5408158Y-8026555D02*
X5398634Y-8007508D01*
X5398634Y-8007508D02*
X5379587Y-7978936D01*
X5379587Y-7978936D02*
X5370063Y-7969412D01*
X5731968Y-8274174D02*
X5722444Y-8264650D01*
X5722444Y-8264650D02*
X5703396Y-8236079D01*
X5703396Y-8236079D02*
X5693872Y-8217031D01*
X5693872Y-8217031D02*
X5684349Y-8188460D01*
X5684349Y-8188460D02*
X5674825Y-8140841D01*
X5674825Y-8140841D02*
X5674825Y-8102746D01*
X5674825Y-8102746D02*
X5684349Y-8055127D01*
X5684349Y-8055127D02*
X5693872Y-8026555D01*
X5693872Y-8026555D02*
X5703396Y-8007508D01*
X5703396Y-8007508D02*
X5722444Y-7978936D01*
X5722444Y-7978936D02*
X5731968Y-7969412D01*
X5808158Y-8064650D02*
X5808158Y-8197984D01*
X5808158Y-8083698D02*
X5817682Y-8074174D01*
X5817682Y-8074174D02*
X5836730Y-8064650D01*
X5836730Y-8064650D02*
X5865301Y-8064650D01*
X5865301Y-8064650D02*
X5884349Y-8074174D01*
X5884349Y-8074174D02*
X5893872Y-8093222D01*
X5893872Y-8093222D02*
X5893872Y-8197984D01*
X6017682Y-8197984D02*
X5998634Y-8188460D01*
X5998634Y-8188460D02*
X5989111Y-8178936D01*
X5989111Y-8178936D02*
X5979587Y-8159888D01*
X5979587Y-8159888D02*
X5979587Y-8102746D01*
X5979587Y-8102746D02*
X5989111Y-8083698D01*
X5989111Y-8083698D02*
X5998634Y-8074174D01*
X5998634Y-8074174D02*
X6017682Y-8064650D01*
X6017682Y-8064650D02*
X6046253Y-8064650D01*
X6046253Y-8064650D02*
X6065301Y-8074174D01*
X6065301Y-8074174D02*
X6074825Y-8083698D01*
X6074825Y-8083698D02*
X6084349Y-8102746D01*
X6084349Y-8102746D02*
X6084349Y-8159888D01*
X6084349Y-8159888D02*
X6074825Y-8178936D01*
X6074825Y-8178936D02*
X6065301Y-8188460D01*
X6065301Y-8188460D02*
X6046253Y-8197984D01*
X6046253Y-8197984D02*
X6017682Y-8197984D01*
X6141492Y-8064650D02*
X6217682Y-8064650D01*
X6170063Y-7997984D02*
X6170063Y-8169412D01*
X6170063Y-8169412D02*
X6179587Y-8188460D01*
X6179587Y-8188460D02*
X6198634Y-8197984D01*
X6198634Y-8197984D02*
X6217682Y-8197984D01*
X6436730Y-8064650D02*
X6436730Y-8264650D01*
X6436730Y-8074174D02*
X6455777Y-8064650D01*
X6455777Y-8064650D02*
X6493873Y-8064650D01*
X6493873Y-8064650D02*
X6512920Y-8074174D01*
X6512920Y-8074174D02*
X6522444Y-8083698D01*
X6522444Y-8083698D02*
X6531968Y-8102746D01*
X6531968Y-8102746D02*
X6531968Y-8159888D01*
X6531968Y-8159888D02*
X6522444Y-8178936D01*
X6522444Y-8178936D02*
X6512920Y-8188460D01*
X6512920Y-8188460D02*
X6493873Y-8197984D01*
X6493873Y-8197984D02*
X6455777Y-8197984D01*
X6455777Y-8197984D02*
X6436730Y-8188460D01*
X6646253Y-8197984D02*
X6627206Y-8188460D01*
X6627206Y-8188460D02*
X6617682Y-8169412D01*
X6617682Y-8169412D02*
X6617682Y-7997984D01*
X6808158Y-8197984D02*
X6808158Y-8093222D01*
X6808158Y-8093222D02*
X6798634Y-8074174D01*
X6798634Y-8074174D02*
X6779587Y-8064650D01*
X6779587Y-8064650D02*
X6741492Y-8064650D01*
X6741492Y-8064650D02*
X6722444Y-8074174D01*
X6808158Y-8188460D02*
X6789111Y-8197984D01*
X6789111Y-8197984D02*
X6741492Y-8197984D01*
X6741492Y-8197984D02*
X6722444Y-8188460D01*
X6722444Y-8188460D02*
X6712920Y-8169412D01*
X6712920Y-8169412D02*
X6712920Y-8150365D01*
X6712920Y-8150365D02*
X6722444Y-8131317D01*
X6722444Y-8131317D02*
X6741492Y-8121793D01*
X6741492Y-8121793D02*
X6789111Y-8121793D01*
X6789111Y-8121793D02*
X6808158Y-8112269D01*
X6874825Y-8064650D02*
X6951015Y-8064650D01*
X6903396Y-7997984D02*
X6903396Y-8169412D01*
X6903396Y-8169412D02*
X6912920Y-8188460D01*
X6912920Y-8188460D02*
X6931968Y-8197984D01*
X6931968Y-8197984D02*
X6951015Y-8197984D01*
X7093873Y-8188460D02*
X7074825Y-8197984D01*
X7074825Y-8197984D02*
X7036730Y-8197984D01*
X7036730Y-8197984D02*
X7017682Y-8188460D01*
X7017682Y-8188460D02*
X7008158Y-8169412D01*
X7008158Y-8169412D02*
X7008158Y-8093222D01*
X7008158Y-8093222D02*
X7017682Y-8074174D01*
X7017682Y-8074174D02*
X7036730Y-8064650D01*
X7036730Y-8064650D02*
X7074825Y-8064650D01*
X7074825Y-8064650D02*
X7093873Y-8074174D01*
X7093873Y-8074174D02*
X7103396Y-8093222D01*
X7103396Y-8093222D02*
X7103396Y-8112269D01*
X7103396Y-8112269D02*
X7008158Y-8131317D01*
X7274825Y-8197984D02*
X7274825Y-7997984D01*
X7274825Y-8188460D02*
X7255777Y-8197984D01*
X7255777Y-8197984D02*
X7217682Y-8197984D01*
X7217682Y-8197984D02*
X7198634Y-8188460D01*
X7198634Y-8188460D02*
X7189111Y-8178936D01*
X7189111Y-8178936D02*
X7179587Y-8159888D01*
X7179587Y-8159888D02*
X7179587Y-8102746D01*
X7179587Y-8102746D02*
X7189111Y-8083698D01*
X7189111Y-8083698D02*
X7198634Y-8074174D01*
X7198634Y-8074174D02*
X7217682Y-8064650D01*
X7217682Y-8064650D02*
X7255777Y-8064650D01*
X7255777Y-8064650D02*
X7274825Y-8074174D01*
X7351015Y-8274174D02*
X7360539Y-8264650D01*
X7360539Y-8264650D02*
X7379587Y-8236079D01*
X7379587Y-8236079D02*
X7389111Y-8217031D01*
X7389111Y-8217031D02*
X7398634Y-8188460D01*
X7398634Y-8188460D02*
X7408158Y-8140841D01*
X7408158Y-8140841D02*
X7408158Y-8102746D01*
X7408158Y-8102746D02*
X7398634Y-8055127D01*
X7398634Y-8055127D02*
X7389111Y-8026555D01*
X7389111Y-8026555D02*
X7379587Y-8007508D01*
X7379587Y-8007508D02*
X7360539Y-7978936D01*
X7360539Y-7978936D02*
X7351015Y-7969412D01*
M02*
