G04 #@! TF.GenerationSoftware,KiCad,Pcbnew,8.0.4*
G04 #@! TF.CreationDate,2025-01-01T16:22:17-06:00*
G04 #@! TF.ProjectId,HVBoard,4856426f-6172-4642-9e6b-696361645f70,rev?*
G04 #@! TF.SameCoordinates,Original*
G04 #@! TF.FileFunction,Other,User*
%FSLAX46Y46*%
G04 Gerber Fmt 4.6, Leading zero omitted, Abs format (unit mm)*
G04 Created by KiCad (PCBNEW 8.0.4) date 2025-01-01 16:22:17*
%MOMM*%
%LPD*%
G01*
G04 APERTURE LIST*
%ADD10C,0.050000*%
G04 APERTURE END LIST*
D10*
G04 #@! TO.C,H6*
X94450000Y-47000000D02*
G75*
G02*
X87550000Y-47000000I-3450000J0D01*
G01*
X87550000Y-47000000D02*
G75*
G02*
X94450000Y-47000000I3450000J0D01*
G01*
G04 #@! TO.C,H5*
X26450000Y-47000000D02*
G75*
G02*
X19550000Y-47000000I-3450000J0D01*
G01*
X19550000Y-47000000D02*
G75*
G02*
X26450000Y-47000000I3450000J0D01*
G01*
G04 #@! TO.C,J7*
X59710000Y-34000000D02*
X59710000Y-42000000D01*
X59710000Y-34000000D02*
X70210000Y-34000000D01*
X70210000Y-42000000D02*
X59710000Y-42000000D01*
X70210000Y-42000000D02*
X70210000Y-34000000D01*
G04 #@! TO.C,R17*
X47437500Y-52270000D02*
X50737500Y-52270000D01*
X47437500Y-53730000D02*
X47437500Y-52270000D01*
X50737500Y-52270000D02*
X50737500Y-53730000D01*
X50737500Y-53730000D02*
X47437500Y-53730000D01*
G04 #@! TO.C,R4*
X49270000Y-55262500D02*
X50730000Y-55262500D01*
X49270000Y-58562500D02*
X49270000Y-55262500D01*
X50730000Y-55262500D02*
X50730000Y-58562500D01*
X50730000Y-58562500D02*
X49270000Y-58562500D01*
G04 #@! TO.C,R19*
X68237500Y-62270000D02*
X68237500Y-63730000D01*
X64937500Y-62270000D02*
X68237500Y-62270000D01*
X68237500Y-63730000D02*
X64937500Y-63730000D01*
X64937500Y-63730000D02*
X64937500Y-62270000D01*
G04 #@! TO.C,D1*
X77150000Y-61350000D02*
X81850000Y-61350000D01*
X77150000Y-63650000D02*
X77150000Y-61350000D01*
X81850000Y-63650000D02*
X77150000Y-63650000D01*
X81850000Y-63650000D02*
X81850000Y-61350000D01*
G04 #@! TO.C,F1*
X44975000Y-61270000D02*
X48275000Y-61270000D01*
X44975000Y-62730000D02*
X44975000Y-61270000D01*
X48275000Y-61270000D02*
X48275000Y-62730000D01*
X48275000Y-62730000D02*
X44975000Y-62730000D01*
G04 #@! TO.C,R15*
X100820000Y-55700000D02*
X102280000Y-55700000D01*
X100820000Y-59000000D02*
X100820000Y-55700000D01*
X102280000Y-55700000D02*
X102280000Y-59000000D01*
X102280000Y-59000000D02*
X100820000Y-59000000D01*
G04 #@! TO.C,Q6*
X102850000Y-52642500D02*
X102850000Y-56482500D01*
X102850000Y-56482500D02*
X106250000Y-56482500D01*
X106250000Y-52642500D02*
X102850000Y-52642500D01*
X106250000Y-56482500D02*
X106250000Y-52642500D01*
G04 #@! TO.C,R12*
X97350000Y-50270000D02*
X100650000Y-50270000D01*
X97350000Y-51730000D02*
X97350000Y-50270000D01*
X100650000Y-50270000D02*
X100650000Y-51730000D01*
X100650000Y-51730000D02*
X97350000Y-51730000D01*
G04 #@! TO.C,R7*
X52270000Y-52262500D02*
X53730000Y-52262500D01*
X52270000Y-55562500D02*
X52270000Y-52262500D01*
X53730000Y-52262500D02*
X53730000Y-55562500D01*
X53730000Y-55562500D02*
X52270000Y-55562500D01*
G04 #@! TO.C,Q5*
X106545000Y-27250000D02*
X106545000Y-37750000D01*
X106545000Y-37750000D02*
X111455000Y-37750000D01*
X111455000Y-27250000D02*
X106545000Y-27250000D01*
X111455000Y-37750000D02*
X111455000Y-27250000D01*
G04 #@! TO.C,R6*
X54380000Y-34050000D02*
X56620000Y-34050000D01*
X54380000Y-38950000D02*
X54380000Y-34050000D01*
X56620000Y-34050000D02*
X56620000Y-38950000D01*
X56620000Y-38950000D02*
X54380000Y-38950000D01*
G04 #@! TO.C,U2*
X51370000Y-42100000D02*
X51370000Y-51900000D01*
X51370000Y-51900000D02*
X59520000Y-51900000D01*
X59520000Y-42100000D02*
X51370000Y-42100000D01*
X59520000Y-51900000D02*
X59520000Y-42100000D01*
G04 #@! TO.C,TP3*
X94700000Y-63200000D02*
X94700000Y-66800000D01*
X94700000Y-66800000D02*
X98300000Y-66800000D01*
X98300000Y-63200000D02*
X94700000Y-63200000D01*
X98300000Y-66800000D02*
X98300000Y-63200000D01*
G04 #@! TO.C,R1*
X71207500Y-65937500D02*
X72667500Y-65937500D01*
X71207500Y-69237500D02*
X71207500Y-65937500D01*
X72667500Y-65937500D02*
X72667500Y-69237500D01*
X72667500Y-69237500D02*
X71207500Y-69237500D01*
G04 #@! TO.C,R8*
X65500000Y-21370000D02*
X65500000Y-33630000D01*
X65500000Y-33630000D02*
X68500000Y-33630000D01*
X68500000Y-21370000D02*
X65500000Y-21370000D01*
X68500000Y-33630000D02*
X68500000Y-21370000D01*
G04 #@! TO.C,J5*
X26600000Y-60550000D02*
X26600000Y-68950000D01*
X26600000Y-68950000D02*
X33350000Y-68950000D01*
X33350000Y-60550000D02*
X26600000Y-60550000D01*
X33350000Y-68950000D02*
X33350000Y-60550000D01*
G04 #@! TO.C,Q4*
X59420000Y-56700000D02*
X59420000Y-53300000D01*
X59420000Y-53300000D02*
X55580000Y-53300000D01*
X55580000Y-56700000D02*
X59420000Y-56700000D01*
X55580000Y-53300000D02*
X55580000Y-56700000D01*
G04 #@! TO.C,D3*
X49150000Y-60850000D02*
X53850000Y-60850000D01*
X49150000Y-63150000D02*
X49150000Y-60850000D01*
X53850000Y-63150000D02*
X49150000Y-63150000D01*
X53850000Y-63150000D02*
X53850000Y-60850000D01*
G04 #@! TO.C,U1*
X46680000Y-51550000D02*
X46680000Y-42750000D01*
X46680000Y-51550000D02*
X50780000Y-51550000D01*
X50780000Y-42750000D02*
X46680000Y-42750000D01*
X50780000Y-42750000D02*
X50780000Y-51550000D01*
G04 #@! TO.C,J3*
X48000000Y-17880000D02*
X57000000Y-17880000D01*
X48000000Y-30200000D02*
X48000000Y-17880000D01*
X57000000Y-17880000D02*
X57000000Y-30200000D01*
X57000000Y-30200000D02*
X48000000Y-30200000D01*
G04 #@! TO.C,J9*
X23850000Y-62550000D02*
X17100000Y-62550000D01*
X17100000Y-62550000D02*
X17100000Y-70950000D01*
X23850000Y-70950000D02*
X23850000Y-62550000D01*
X17100000Y-70950000D02*
X23850000Y-70950000D01*
G04 #@! TO.C,R10*
X57270000Y-56850000D02*
X58730000Y-56850000D01*
X57270000Y-60150000D02*
X57270000Y-56850000D01*
X58730000Y-56850000D02*
X58730000Y-60150000D01*
X58730000Y-60150000D02*
X57270000Y-60150000D01*
G04 #@! TO.C,J8*
X98710000Y-13000000D02*
X98710000Y-21000000D01*
X98710000Y-13000000D02*
X109210000Y-13000000D01*
X109210000Y-21000000D02*
X98710000Y-21000000D01*
X109210000Y-21000000D02*
X109210000Y-13000000D01*
G04 #@! TO.C,R5*
X46380000Y-33050000D02*
X48620000Y-33050000D01*
X46380000Y-37950000D02*
X46380000Y-33050000D01*
X48620000Y-33050000D02*
X48620000Y-37950000D01*
X48620000Y-37950000D02*
X46380000Y-37950000D01*
G04 #@! TO.C,JP1*
X43350000Y-58250000D02*
X43350000Y-60750000D01*
X43350000Y-58250000D02*
X46650000Y-58250000D01*
X46650000Y-60750000D02*
X43350000Y-60750000D01*
X46650000Y-60750000D02*
X46650000Y-58250000D01*
G04 #@! TO.C,Q1*
X72580000Y-61800000D02*
X72580000Y-65200000D01*
X72580000Y-65200000D02*
X76420000Y-65200000D01*
X76420000Y-61800000D02*
X72580000Y-61800000D01*
X76420000Y-65200000D02*
X76420000Y-61800000D01*
G04 #@! TO.C,J4*
X17050000Y-61400000D02*
X25450000Y-61400000D01*
X25450000Y-61400000D02*
X25450000Y-54650000D01*
X17050000Y-54650000D02*
X17050000Y-61400000D01*
X25450000Y-54650000D02*
X17050000Y-54650000D01*
G04 #@! TO.C,R2*
X77695000Y-67270000D02*
X80655000Y-67270000D01*
X77695000Y-68730000D02*
X77695000Y-67270000D01*
X80655000Y-67270000D02*
X80655000Y-68730000D01*
X80655000Y-68730000D02*
X77695000Y-68730000D01*
G04 #@! TO.C,R11*
X97550000Y-36880000D02*
X102450000Y-36880000D01*
X97550000Y-39120000D02*
X97550000Y-36880000D01*
X102450000Y-36880000D02*
X102450000Y-39120000D01*
X102450000Y-39120000D02*
X97550000Y-39120000D01*
G04 #@! TO.C,U3*
X101410000Y-41920000D02*
X101410000Y-51720000D01*
X101410000Y-51720000D02*
X109560000Y-51720000D01*
X109560000Y-41920000D02*
X101410000Y-41920000D01*
X109560000Y-51720000D02*
X109560000Y-41920000D01*
G04 #@! TO.C,R3*
X49880000Y-35550000D02*
X52120000Y-35550000D01*
X49880000Y-40450000D02*
X49880000Y-35550000D01*
X52120000Y-35550000D02*
X52120000Y-40450000D01*
X52120000Y-40450000D02*
X49880000Y-40450000D01*
G04 #@! TO.C,J6*
X35600000Y-59050000D02*
X35600000Y-69950000D01*
X35600000Y-69950000D02*
X42350000Y-69950000D01*
X42350000Y-59050000D02*
X35600000Y-59050000D01*
X42350000Y-69950000D02*
X42350000Y-59050000D01*
G04 #@! TO.C,R13*
X93000000Y-21290000D02*
X93000000Y-33550000D01*
X93000000Y-33550000D02*
X96000000Y-33550000D01*
X96000000Y-21290000D02*
X93000000Y-21290000D01*
X96000000Y-33550000D02*
X96000000Y-21290000D01*
G04 #@! TO.C,TP6*
X47200000Y-64700000D02*
X47200000Y-68300000D01*
X47200000Y-68300000D02*
X50800000Y-68300000D01*
X50800000Y-64700000D02*
X47200000Y-64700000D01*
X50800000Y-68300000D02*
X50800000Y-64700000D01*
G04 #@! TO.C,D2*
X44400000Y-68750000D02*
X44400000Y-64250000D01*
X46600000Y-64250000D02*
X44400000Y-64250000D01*
X46600000Y-64250000D02*
X46600000Y-68750000D01*
X46600000Y-68750000D02*
X44400000Y-68750000D01*
G04 #@! TO.C,K1*
X71250000Y-30750000D02*
X71250000Y-60050000D01*
X71250000Y-60050000D02*
X84250000Y-60050000D01*
X84250000Y-30750000D02*
X71250000Y-30750000D01*
X84250000Y-60050000D02*
X84250000Y-30750000D01*
G04 #@! TO.C,Q3*
X68710000Y-24600000D02*
X68710000Y-29510000D01*
X68710000Y-29510000D02*
X79210000Y-29510000D01*
X79210000Y-24600000D02*
X68710000Y-24600000D01*
X79210000Y-29510000D02*
X79210000Y-24600000D01*
G04 #@! TO.C,C3*
X60250000Y-16250000D02*
X60250000Y-29750000D01*
X60250000Y-29750000D02*
X64750000Y-29750000D01*
X64750000Y-16250000D02*
X60250000Y-16250000D01*
X64750000Y-29750000D02*
X64750000Y-16250000D01*
G04 #@! TO.C,TP2*
X60200000Y-56700000D02*
X60200000Y-60300000D01*
X60200000Y-60300000D02*
X63800000Y-60300000D01*
X63800000Y-56700000D02*
X60200000Y-56700000D01*
X63800000Y-60300000D02*
X63800000Y-56700000D01*
G04 #@! TO.C,J2*
X51550000Y-65300000D02*
X51550000Y-70800000D01*
X51550000Y-70800000D02*
X70450000Y-70800000D01*
X70450000Y-65300000D02*
X51550000Y-65300000D01*
X70450000Y-70800000D02*
X70450000Y-65300000D01*
G04 #@! TO.C,D4*
X85980000Y-68730000D02*
X83020000Y-68730000D01*
X85980000Y-67270000D02*
X85980000Y-68730000D01*
X83020000Y-68730000D02*
X83020000Y-67270000D01*
X83020000Y-67270000D02*
X85980000Y-67270000D01*
G04 #@! TO.C,R18*
X60850000Y-62270000D02*
X64150000Y-62270000D01*
X60850000Y-63730000D02*
X60850000Y-62270000D01*
X64150000Y-62270000D02*
X64150000Y-63730000D01*
X64150000Y-63730000D02*
X60850000Y-63730000D01*
G04 #@! TO.C,TP1*
X55200000Y-61200000D02*
X55200000Y-64800000D01*
X55200000Y-64800000D02*
X58800000Y-64800000D01*
X58800000Y-61200000D02*
X55200000Y-61200000D01*
X58800000Y-64800000D02*
X58800000Y-61200000D01*
G04 #@! TO.C,C1*
X96250000Y-21750000D02*
X96250000Y-26250000D01*
X96250000Y-26250000D02*
X109750000Y-26250000D01*
X109750000Y-21750000D02*
X96250000Y-21750000D01*
X109750000Y-26250000D02*
X109750000Y-21750000D01*
G04 #@! TO.C,R14*
X101880000Y-29550000D02*
X104120000Y-29550000D01*
X104120000Y-29550000D02*
X104120000Y-34450000D01*
X101880000Y-34450000D02*
X101880000Y-29550000D01*
X104120000Y-34450000D02*
X101880000Y-34450000D01*
G04 #@! TO.C,U4*
X26872000Y-33762000D02*
X26872000Y-57638000D01*
X26872000Y-57638000D02*
X45922000Y-57638000D01*
X43178800Y-41585200D02*
X45922000Y-41585200D01*
X43178800Y-51135600D02*
X43178800Y-41585200D01*
X45922000Y-33762000D02*
X26872000Y-33762000D01*
X45922000Y-41585200D02*
X45922000Y-33762000D01*
X45922000Y-51135600D02*
X43178800Y-51135600D01*
X45922000Y-57638000D02*
X45922000Y-51135600D01*
G04 #@! TD*
M02*
