G04 #@! TF.GenerationSoftware,KiCad,Pcbnew,8.0.4*
G04 #@! TF.CreationDate,2025-01-01T16:22:17-06:00*
G04 #@! TF.ProjectId,HVBoard,4856426f-6172-4642-9e6b-696361645f70,rev?*
G04 #@! TF.SameCoordinates,Original*
G04 #@! TF.FileFunction,Copper,L1,Top*
G04 #@! TF.FilePolarity,Positive*
%FSLAX46Y46*%
G04 Gerber Fmt 4.6, Leading zero omitted, Abs format (unit mm)*
G04 Created by KiCad (PCBNEW 8.0.4) date 2025-01-01 16:22:17*
%MOMM*%
%LPD*%
G01*
G04 APERTURE LIST*
G04 Aperture macros list*
%AMRoundRect*
0 Rectangle with rounded corners*
0 $1 Rounding radius*
0 $2 $3 $4 $5 $6 $7 $8 $9 X,Y pos of 4 corners*
0 Add a 4 corners polygon primitive as box body*
4,1,4,$2,$3,$4,$5,$6,$7,$8,$9,$2,$3,0*
0 Add four circle primitives for the rounded corners*
1,1,$1+$1,$2,$3*
1,1,$1+$1,$4,$5*
1,1,$1+$1,$6,$7*
1,1,$1+$1,$8,$9*
0 Add four rect primitives between the rounded corners*
20,1,$1+$1,$2,$3,$4,$5,0*
20,1,$1+$1,$4,$5,$6,$7,0*
20,1,$1+$1,$6,$7,$8,$9,0*
20,1,$1+$1,$8,$9,$2,$3,0*%
G04 Aperture macros list end*
G04 #@! TA.AperFunction,ComponentPad*
%ADD10R,3.000000X3.000000*%
G04 #@! TD*
G04 #@! TA.AperFunction,ComponentPad*
%ADD11C,3.000000*%
G04 #@! TD*
G04 #@! TA.AperFunction,SMDPad,CuDef*
%ADD12RoundRect,0.237500X0.250000X0.237500X-0.250000X0.237500X-0.250000X-0.237500X0.250000X-0.237500X0*%
G04 #@! TD*
G04 #@! TA.AperFunction,SMDPad,CuDef*
%ADD13RoundRect,0.237500X-0.237500X0.250000X-0.237500X-0.250000X0.237500X-0.250000X0.237500X0.250000X0*%
G04 #@! TD*
G04 #@! TA.AperFunction,SMDPad,CuDef*
%ADD14RoundRect,0.237500X-0.250000X-0.237500X0.250000X-0.237500X0.250000X0.237500X-0.250000X0.237500X0*%
G04 #@! TD*
G04 #@! TA.AperFunction,SMDPad,CuDef*
%ADD15RoundRect,0.225000X0.225000X0.375000X-0.225000X0.375000X-0.225000X-0.375000X0.225000X-0.375000X0*%
G04 #@! TD*
G04 #@! TA.AperFunction,SMDPad,CuDef*
%ADD16RoundRect,0.237500X-0.287500X-0.237500X0.287500X-0.237500X0.287500X0.237500X-0.287500X0.237500X0*%
G04 #@! TD*
G04 #@! TA.AperFunction,SMDPad,CuDef*
%ADD17RoundRect,0.237500X0.237500X-0.250000X0.237500X0.250000X-0.237500X0.250000X-0.237500X-0.250000X0*%
G04 #@! TD*
G04 #@! TA.AperFunction,SMDPad,CuDef*
%ADD18RoundRect,0.150000X-0.150000X0.587500X-0.150000X-0.587500X0.150000X-0.587500X0.150000X0.587500X0*%
G04 #@! TD*
G04 #@! TA.AperFunction,ComponentPad*
%ADD19R,2.000000X1.905000*%
G04 #@! TD*
G04 #@! TA.AperFunction,ComponentPad*
%ADD20O,2.000000X1.905000*%
G04 #@! TD*
G04 #@! TA.AperFunction,SMDPad,CuDef*
%ADD21RoundRect,0.250000X0.625000X-0.400000X0.625000X0.400000X-0.625000X0.400000X-0.625000X-0.400000X0*%
G04 #@! TD*
G04 #@! TA.AperFunction,ComponentPad*
%ADD22R,1.600000X1.600000*%
G04 #@! TD*
G04 #@! TA.AperFunction,ComponentPad*
%ADD23O,1.600000X1.600000*%
G04 #@! TD*
G04 #@! TA.AperFunction,ComponentPad*
%ADD24R,1.700000X1.700000*%
G04 #@! TD*
G04 #@! TA.AperFunction,ComponentPad*
%ADD25C,1.600000*%
G04 #@! TD*
G04 #@! TA.AperFunction,ComponentPad*
%ADD26RoundRect,0.250000X-0.750000X0.600000X-0.750000X-0.600000X0.750000X-0.600000X0.750000X0.600000X0*%
G04 #@! TD*
G04 #@! TA.AperFunction,ComponentPad*
%ADD27O,2.000000X1.700000*%
G04 #@! TD*
G04 #@! TA.AperFunction,SMDPad,CuDef*
%ADD28RoundRect,0.150000X-0.587500X-0.150000X0.587500X-0.150000X0.587500X0.150000X-0.587500X0.150000X0*%
G04 #@! TD*
G04 #@! TA.AperFunction,SMDPad,CuDef*
%ADD29R,0.640000X2.000000*%
G04 #@! TD*
G04 #@! TA.AperFunction,ComponentPad*
%ADD30R,2.700000X2.700000*%
G04 #@! TD*
G04 #@! TA.AperFunction,ComponentPad*
%ADD31C,2.700000*%
G04 #@! TD*
G04 #@! TA.AperFunction,SMDPad,CuDef*
%ADD32R,1.000000X1.500000*%
G04 #@! TD*
G04 #@! TA.AperFunction,ComponentPad*
%ADD33RoundRect,0.250000X-0.600000X-0.750000X0.600000X-0.750000X0.600000X0.750000X-0.600000X0.750000X0*%
G04 #@! TD*
G04 #@! TA.AperFunction,ComponentPad*
%ADD34O,1.700000X2.000000*%
G04 #@! TD*
G04 #@! TA.AperFunction,SMDPad,CuDef*
%ADD35RoundRect,0.200000X-0.200000X-0.275000X0.200000X-0.275000X0.200000X0.275000X-0.200000X0.275000X0*%
G04 #@! TD*
G04 #@! TA.AperFunction,SMDPad,CuDef*
%ADD36RoundRect,0.250000X0.400000X0.625000X-0.400000X0.625000X-0.400000X-0.625000X0.400000X-0.625000X0*%
G04 #@! TD*
G04 #@! TA.AperFunction,ComponentPad*
%ADD37RoundRect,0.250000X-0.725000X0.600000X-0.725000X-0.600000X0.725000X-0.600000X0.725000X0.600000X0*%
G04 #@! TD*
G04 #@! TA.AperFunction,ComponentPad*
%ADD38O,1.950000X1.700000*%
G04 #@! TD*
G04 #@! TA.AperFunction,SMDPad,CuDef*
%ADD39R,1.200000X1.200000*%
G04 #@! TD*
G04 #@! TA.AperFunction,ComponentPad*
%ADD40C,2.000000*%
G04 #@! TD*
G04 #@! TA.AperFunction,ComponentPad*
%ADD41R,2.000000X2.000000*%
G04 #@! TD*
G04 #@! TA.AperFunction,ComponentPad*
%ADD42R,1.905000X2.000000*%
G04 #@! TD*
G04 #@! TA.AperFunction,ComponentPad*
%ADD43O,1.905000X2.000000*%
G04 #@! TD*
G04 #@! TA.AperFunction,ComponentPad*
%ADD44RoundRect,0.250000X-0.350000X-0.625000X0.350000X-0.625000X0.350000X0.625000X-0.350000X0.625000X0*%
G04 #@! TD*
G04 #@! TA.AperFunction,ComponentPad*
%ADD45O,1.200000X1.750000*%
G04 #@! TD*
G04 #@! TA.AperFunction,SMDPad,CuDef*
%ADD46RoundRect,0.218750X0.218750X0.256250X-0.218750X0.256250X-0.218750X-0.256250X0.218750X-0.256250X0*%
G04 #@! TD*
G04 #@! TA.AperFunction,ComponentPad*
%ADD47R,1.524000X1.524000*%
G04 #@! TD*
G04 #@! TA.AperFunction,ViaPad*
%ADD48C,0.600000*%
G04 #@! TD*
G04 #@! TA.AperFunction,Conductor*
%ADD49C,0.200000*%
G04 #@! TD*
G04 #@! TA.AperFunction,Conductor*
%ADD50C,0.500000*%
G04 #@! TD*
G04 APERTURE END LIST*
D10*
G04 #@! TO.P,J7,1,Pin_1*
G04 #@! TO.N,120VAC_NEUTRAL*
X62420000Y-38000000D03*
D11*
G04 #@! TO.P,J7,2,Pin_2*
G04 #@! TO.N,120VAC_HOT*
X67500000Y-38000000D03*
G04 #@! TD*
D12*
G04 #@! TO.P,R17,1*
G04 #@! TO.N,/AC_ZC*
X50000000Y-53000000D03*
G04 #@! TO.P,R17,2*
G04 #@! TO.N,GND*
X48175000Y-53000000D03*
G04 #@! TD*
D13*
G04 #@! TO.P,R4,1*
G04 #@! TO.N,/AC_ZC*
X50000000Y-56000000D03*
G04 #@! TO.P,R4,2*
G04 #@! TO.N,+5V*
X50000000Y-57825000D03*
G04 #@! TD*
D14*
G04 #@! TO.P,R19,1*
G04 #@! TO.N,/STEAM_VALVE_IN*
X65675000Y-63000000D03*
G04 #@! TO.P,R19,2*
G04 #@! TO.N,GND*
X67500000Y-63000000D03*
G04 #@! TD*
D15*
G04 #@! TO.P,D1,1,K*
G04 #@! TO.N,+5V*
X81150000Y-62500000D03*
G04 #@! TO.P,D1,2,A*
G04 #@! TO.N,Net-(D1-A)*
X77850000Y-62500000D03*
G04 #@! TD*
D16*
G04 #@! TO.P,F1,1*
G04 #@! TO.N,Net-(JP1-B)*
X45750000Y-62000000D03*
G04 #@! TO.P,F1,2*
G04 #@! TO.N,Net-(D2-K)*
X47500000Y-62000000D03*
G04 #@! TD*
D17*
G04 #@! TO.P,R15,1*
G04 #@! TO.N,/BOILER_TRIAC*
X101550000Y-58262500D03*
G04 #@! TO.P,R15,2*
G04 #@! TO.N,Net-(Q6-G)*
X101550000Y-56437500D03*
G04 #@! TD*
D18*
G04 #@! TO.P,Q6,1,D*
G04 #@! TO.N,Net-(Q6-D)*
X105500000Y-53625000D03*
G04 #@! TO.P,Q6,2,G*
G04 #@! TO.N,Net-(Q6-G)*
X103600000Y-53625000D03*
G04 #@! TO.P,Q6,3,S*
G04 #@! TO.N,GND*
X104550000Y-55500000D03*
G04 #@! TD*
D14*
G04 #@! TO.P,R12,1*
G04 #@! TO.N,+5V*
X98087500Y-51000000D03*
G04 #@! TO.P,R12,2*
G04 #@! TO.N,Net-(R12-Pad2)*
X99912500Y-51000000D03*
G04 #@! TD*
D17*
G04 #@! TO.P,R7,1*
G04 #@! TO.N,+5V*
X53000000Y-54825000D03*
G04 #@! TO.P,R7,2*
G04 #@! TO.N,Net-(R7-Pad2)*
X53000000Y-53000000D03*
G04 #@! TD*
D19*
G04 #@! TO.P,Q5,1,A1*
G04 #@! TO.N,/BOILER_HOT_OUT*
X108055000Y-29960000D03*
D20*
G04 #@! TO.P,Q5,2,A2*
G04 #@! TO.N,/120VAC_HOT_SWITCHED*
X108055000Y-32500000D03*
G04 #@! TO.P,Q5,3,G*
G04 #@! TO.N,Net-(Q5-G)*
X108055000Y-35040000D03*
G04 #@! TD*
D21*
G04 #@! TO.P,R6,1*
G04 #@! TO.N,Net-(R6-Pad1)*
X55500000Y-38050000D03*
G04 #@! TO.P,R6,2*
G04 #@! TO.N,/120VAC_HOT_SWITCHED*
X55500000Y-34950000D03*
G04 #@! TD*
D22*
G04 #@! TO.P,U2,1*
G04 #@! TO.N,Net-(R7-Pad2)*
X52920000Y-50800000D03*
D23*
G04 #@! TO.P,U2,2*
G04 #@! TO.N,Net-(Q4-D)*
X55460000Y-50800000D03*
G04 #@! TO.P,U2,3,NC*
G04 #@! TO.N,unconnected-(U2-NC-Pad3)*
X58000000Y-50800000D03*
G04 #@! TO.P,U2,4*
G04 #@! TO.N,Net-(Q3-G)*
X58000000Y-43180000D03*
G04 #@! TO.P,U2,5,NC*
G04 #@! TO.N,unconnected-(U2-NC-Pad5)*
X55460000Y-43180000D03*
G04 #@! TO.P,U2,6*
G04 #@! TO.N,Net-(R6-Pad1)*
X52920000Y-43180000D03*
G04 #@! TD*
D24*
G04 #@! TO.P,TP3,1,1*
G04 #@! TO.N,/BOILER_TRIAC*
X96500000Y-65000000D03*
G04 #@! TD*
D17*
G04 #@! TO.P,R1,1*
G04 #@! TO.N,/AC_RELAYS*
X71937500Y-68500000D03*
G04 #@! TO.P,R1,2*
G04 #@! TO.N,Net-(Q1-G)*
X71937500Y-66675000D03*
G04 #@! TD*
D25*
G04 #@! TO.P,R8,1*
G04 #@! TO.N,/120VAC_HOT_SWITCHED*
X67000000Y-32580000D03*
D23*
G04 #@! TO.P,R8,2*
G04 #@! TO.N,Net-(C3-Pad1)*
X67000000Y-22420000D03*
G04 #@! TD*
D26*
G04 #@! TO.P,J5,1,Pin_1*
G04 #@! TO.N,GND*
X30500000Y-63500000D03*
D27*
G04 #@! TO.P,J5,2,Pin_2*
G04 #@! TO.N,/STEAM_VALVE_IN*
X30500000Y-66000000D03*
G04 #@! TD*
D28*
G04 #@! TO.P,Q4,3,S*
G04 #@! TO.N,GND*
X58437500Y-55000000D03*
G04 #@! TO.P,Q4,2,G*
G04 #@! TO.N,Net-(Q4-G)*
X56562500Y-55950000D03*
G04 #@! TO.P,Q4,1,D*
G04 #@! TO.N,Net-(Q4-D)*
X56562500Y-54050000D03*
G04 #@! TD*
D15*
G04 #@! TO.P,D3,1,K*
G04 #@! TO.N,+5V*
X53150000Y-62000000D03*
G04 #@! TO.P,D3,2,A*
G04 #@! TO.N,Net-(D2-K)*
X49850000Y-62000000D03*
G04 #@! TD*
D29*
G04 #@! TO.P,U1,1*
G04 #@! TO.N,Net-(R3-Pad1)*
X50000000Y-44000000D03*
G04 #@! TO.P,U1,2*
G04 #@! TO.N,Net-(R5-Pad1)*
X47460000Y-44000000D03*
G04 #@! TO.P,U1,3*
G04 #@! TO.N,GND*
X47460000Y-50300000D03*
G04 #@! TO.P,U1,4*
G04 #@! TO.N,/AC_ZC*
X50000000Y-50300000D03*
G04 #@! TD*
D30*
G04 #@! TO.P,J3,1,1*
G04 #@! TO.N,/PUMP_HOT_OUT*
X52500000Y-28000000D03*
D31*
G04 #@! TO.P,J3,2,2*
G04 #@! TO.N,unconnected-(J3-Pad2)*
X52500000Y-24040000D03*
G04 #@! TO.P,J3,3,3*
G04 #@! TO.N,120VAC_NEUTRAL*
X52500000Y-20080000D03*
G04 #@! TD*
D26*
G04 #@! TO.P,J9,1,Pin_1*
G04 #@! TO.N,/THERMISTOR_IN*
X21000000Y-65500000D03*
D27*
G04 #@! TO.P,J9,2,Pin_2*
G04 #@! TO.N,/THERMISTOR_OUT*
X21000000Y-68000000D03*
G04 #@! TD*
D17*
G04 #@! TO.P,R10,1*
G04 #@! TO.N,/PUMP_TRIAC*
X58000000Y-59412500D03*
G04 #@! TO.P,R10,2*
G04 #@! TO.N,Net-(Q4-G)*
X58000000Y-57587500D03*
G04 #@! TD*
D10*
G04 #@! TO.P,J8,1,Pin_1*
G04 #@! TO.N,/BOILER_HOT_OUT*
X106500000Y-17000000D03*
D11*
G04 #@! TO.P,J8,2,Pin_2*
G04 #@! TO.N,120VAC_NEUTRAL*
X101420000Y-17000000D03*
G04 #@! TD*
D21*
G04 #@! TO.P,R5,1*
G04 #@! TO.N,Net-(R5-Pad1)*
X47500000Y-37050000D03*
G04 #@! TO.P,R5,2*
G04 #@! TO.N,120VAC_NEUTRAL*
X47500000Y-33950000D03*
G04 #@! TD*
D32*
G04 #@! TO.P,JP1,1,A*
G04 #@! TO.N,/ACDC_5V*
X44350000Y-59500000D03*
G04 #@! TO.P,JP1,2,B*
G04 #@! TO.N,Net-(JP1-B)*
X45650000Y-59500000D03*
G04 #@! TD*
D28*
G04 #@! TO.P,Q1,1,D*
G04 #@! TO.N,Net-(D1-A)*
X73562500Y-62550000D03*
G04 #@! TO.P,Q1,2,G*
G04 #@! TO.N,Net-(Q1-G)*
X73562500Y-64450000D03*
G04 #@! TO.P,Q1,3,S*
G04 #@! TO.N,GND*
X75437500Y-63500000D03*
G04 #@! TD*
D33*
G04 #@! TO.P,J4,1,Pin_1*
G04 #@! TO.N,/THERMISTOR_OUT*
X20000000Y-57500000D03*
D34*
G04 #@! TO.P,J4,2,Pin_2*
G04 #@! TO.N,/THERMISTOR_IN*
X22500000Y-57500000D03*
G04 #@! TD*
D35*
G04 #@! TO.P,R2,1*
G04 #@! TO.N,+5V*
X78350000Y-68000000D03*
G04 #@! TO.P,R2,2*
G04 #@! TO.N,Net-(D4-A)*
X80000000Y-68000000D03*
G04 #@! TD*
D36*
G04 #@! TO.P,R11,1*
G04 #@! TO.N,Net-(R11-Pad1)*
X101550000Y-38000000D03*
G04 #@! TO.P,R11,2*
G04 #@! TO.N,/120VAC_HOT_SWITCHED*
X98450000Y-38000000D03*
G04 #@! TD*
D22*
G04 #@! TO.P,U3,1*
G04 #@! TO.N,Net-(R12-Pad2)*
X102960000Y-50620000D03*
D23*
G04 #@! TO.P,U3,2*
G04 #@! TO.N,Net-(Q6-D)*
X105500000Y-50620000D03*
G04 #@! TO.P,U3,3,NC*
G04 #@! TO.N,unconnected-(U3-NC-Pad3)*
X108040000Y-50620000D03*
G04 #@! TO.P,U3,4*
G04 #@! TO.N,Net-(Q5-G)*
X108040000Y-43000000D03*
G04 #@! TO.P,U3,5,NC*
G04 #@! TO.N,unconnected-(U3-NC-Pad5)*
X105500000Y-43000000D03*
G04 #@! TO.P,U3,6*
G04 #@! TO.N,Net-(R11-Pad1)*
X102960000Y-43000000D03*
G04 #@! TD*
D21*
G04 #@! TO.P,R3,1*
G04 #@! TO.N,Net-(R3-Pad1)*
X51000000Y-39550000D03*
G04 #@! TO.P,R3,2*
G04 #@! TO.N,/120VAC_HOT_SWITCHED*
X51000000Y-36450000D03*
G04 #@! TD*
D37*
G04 #@! TO.P,J6,1,Pin_1*
G04 #@! TO.N,GND*
X39500000Y-62000000D03*
D38*
G04 #@! TO.P,J6,2,Pin_2*
G04 #@! TO.N,/PRESSURE_SENSOR_SIG*
X39500000Y-64500000D03*
G04 #@! TO.P,J6,3,Pin_3*
G04 #@! TO.N,+5V*
X39500000Y-67000000D03*
G04 #@! TD*
D25*
G04 #@! TO.P,R13,1*
G04 #@! TO.N,/120VAC_HOT_SWITCHED*
X94500000Y-32500000D03*
D23*
G04 #@! TO.P,R13,2*
G04 #@! TO.N,Net-(C1-Pad1)*
X94500000Y-22340000D03*
G04 #@! TD*
D24*
G04 #@! TO.P,TP6,1,1*
G04 #@! TO.N,+5V*
X49000000Y-66500000D03*
G04 #@! TD*
D39*
G04 #@! TO.P,D2,1,K*
G04 #@! TO.N,Net-(D2-K)*
X45500000Y-65100000D03*
G04 #@! TO.P,D2,2,A*
G04 #@! TO.N,GND*
X45500000Y-67900000D03*
G04 #@! TD*
D40*
G04 #@! TO.P,K1,13*
G04 #@! TO.N,120VAC_HOT*
X81500000Y-37500000D03*
X74000000Y-37500000D03*
G04 #@! TO.P,K1,14*
G04 #@! TO.N,/120VAC_HOT_SWITCHED*
X81500000Y-32500000D03*
X74000000Y-32500000D03*
D41*
G04 #@! TO.P,K1,A1*
G04 #@! TO.N,+5V*
X81500000Y-57500000D03*
D40*
G04 #@! TO.P,K1,A2*
G04 #@! TO.N,Net-(D1-A)*
X74000000Y-57500000D03*
G04 #@! TD*
D42*
G04 #@! TO.P,Q3,1,A1*
G04 #@! TO.N,/PUMP_HOT_OUT*
X71420000Y-28000000D03*
D43*
G04 #@! TO.P,Q3,2,A2*
G04 #@! TO.N,/120VAC_HOT_SWITCHED*
X73960000Y-28000000D03*
G04 #@! TO.P,Q3,3,G*
G04 #@! TO.N,Net-(Q3-G)*
X76500000Y-28000000D03*
G04 #@! TD*
D40*
G04 #@! TO.P,C3,1*
G04 #@! TO.N,Net-(C3-Pad1)*
X62500000Y-18000000D03*
G04 #@! TO.P,C3,2*
G04 #@! TO.N,/PUMP_HOT_OUT*
X62500000Y-28000000D03*
G04 #@! TD*
D24*
G04 #@! TO.P,TP2,1,1*
G04 #@! TO.N,/PUMP_TRIAC*
X62000000Y-58500000D03*
G04 #@! TD*
D44*
G04 #@! TO.P,J2,1,Pin_1*
G04 #@! TO.N,+5V*
X54000000Y-67500000D03*
D45*
G04 #@! TO.P,J2,2,Pin_2*
G04 #@! TO.N,/AC_RELAYS*
X56000000Y-67500000D03*
G04 #@! TO.P,J2,3,Pin_3*
G04 #@! TO.N,/AC_ZC*
X58000000Y-67500000D03*
G04 #@! TO.P,J2,4,Pin_4*
G04 #@! TO.N,/PUMP_TRIAC*
X60000000Y-67500000D03*
G04 #@! TO.P,J2,5,Pin_5*
G04 #@! TO.N,/BOILER_TRIAC*
X62000000Y-67500000D03*
G04 #@! TO.P,J2,6,Pin_6*
G04 #@! TO.N,/STEAM_VALVE_IN*
X64000000Y-67500000D03*
G04 #@! TO.P,J2,7,Pin_7*
G04 #@! TO.N,/PRESSURE_SENSOR_SIG*
X66000000Y-67500000D03*
G04 #@! TO.P,J2,8,Pin_8*
G04 #@! TO.N,GND*
X68000000Y-67500000D03*
G04 #@! TD*
D46*
G04 #@! TO.P,D4,1,K*
G04 #@! TO.N,GND*
X85287500Y-68000000D03*
G04 #@! TO.P,D4,2,A*
G04 #@! TO.N,Net-(D4-A)*
X83712500Y-68000000D03*
G04 #@! TD*
D12*
G04 #@! TO.P,R18,1*
G04 #@! TO.N,/STEAM_VALVE_IN*
X63412500Y-63000000D03*
G04 #@! TO.P,R18,2*
G04 #@! TO.N,+5V*
X61587500Y-63000000D03*
G04 #@! TD*
D24*
G04 #@! TO.P,TP1,1,1*
G04 #@! TO.N,/AC_ZC*
X57000000Y-63000000D03*
G04 #@! TD*
D40*
G04 #@! TO.P,C1,1*
G04 #@! TO.N,Net-(C1-Pad1)*
X98000000Y-24000000D03*
G04 #@! TO.P,C1,2*
G04 #@! TO.N,/BOILER_HOT_OUT*
X108000000Y-24000000D03*
G04 #@! TD*
D21*
G04 #@! TO.P,R14,1*
G04 #@! TO.N,Net-(Q5-G)*
X103000000Y-33550000D03*
G04 #@! TO.P,R14,2*
G04 #@! TO.N,/BOILER_HOT_OUT*
X103000000Y-30450000D03*
G04 #@! TD*
D47*
G04 #@! TO.P,U4,1,N*
G04 #@! TO.N,120VAC_NEUTRAL*
X44500000Y-35220000D03*
G04 #@! TO.P,U4,2,L*
G04 #@! TO.N,120VAC_HOT*
X44500000Y-40300000D03*
G04 #@! TO.P,U4,3,V+*
G04 #@! TO.N,/ACDC_5V*
X44500000Y-53000000D03*
G04 #@! TO.P,U4,4,V-*
G04 #@! TO.N,GND*
X44500000Y-55540000D03*
G04 #@! TD*
D48*
G04 #@! TO.N,/AC_ZC*
X52000000Y-56500000D03*
G04 #@! TO.N,+5V*
X77500000Y-64400000D03*
X97000000Y-53000000D03*
X62000000Y-64500000D03*
G04 #@! TO.N,GND*
X60500000Y-55540000D03*
X66500000Y-59500000D03*
G04 #@! TO.N,/BOILER_TRIAC*
X101500000Y-60000000D03*
G04 #@! TO.N,120VAC_NEUTRAL*
X49500000Y-34000000D03*
G04 #@! TO.N,/STEAM_VALVE_IN*
X49500000Y-69500000D03*
G04 #@! TD*
D49*
G04 #@! TO.N,Net-(Q5-G)*
X108055000Y-35040000D02*
X108015000Y-35000000D01*
X108015000Y-35000000D02*
X104450000Y-35000000D01*
X104450000Y-35000000D02*
X103000000Y-33550000D01*
G04 #@! TO.N,/BOILER_HOT_OUT*
X108055000Y-29960000D02*
X107565000Y-30450000D01*
X107565000Y-30450000D02*
X103000000Y-30450000D01*
D50*
G04 #@! TO.N,Net-(R11-Pad1)*
X102960000Y-43000000D02*
X101550000Y-41590000D01*
X101550000Y-41590000D02*
X101550000Y-38000000D01*
G04 #@! TO.N,/120VAC_HOT_SWITCHED*
X95500000Y-38000000D02*
X94500000Y-37000000D01*
X98450000Y-38000000D02*
X95500000Y-38000000D01*
X94500000Y-37000000D02*
X94500000Y-32500000D01*
D49*
G04 #@! TO.N,/AC_ZC*
X52000000Y-56500000D02*
X51500000Y-56000000D01*
X51500000Y-56000000D02*
X50000000Y-56000000D01*
G04 #@! TO.N,+5V*
X53000000Y-54825000D02*
X53000000Y-56500000D01*
X53000000Y-56500000D02*
X51675000Y-57825000D01*
X51675000Y-57825000D02*
X50000000Y-57825000D01*
G04 #@! TO.N,/AC_ZC*
X58000000Y-67500000D02*
X58000000Y-64000000D01*
X58000000Y-64000000D02*
X57000000Y-63000000D01*
G04 #@! TO.N,GND*
X48175000Y-52675000D02*
X47460000Y-51960000D01*
X47460000Y-51960000D02*
X47460000Y-50300000D01*
X44500000Y-55540000D02*
X45635000Y-55540000D01*
X45635000Y-55540000D02*
X48175000Y-53000000D01*
G04 #@! TO.N,+5V*
X50000000Y-57825000D02*
X50000000Y-58850000D01*
X50000000Y-58850000D02*
X53150000Y-62000000D01*
G04 #@! TO.N,GND*
X85287500Y-68000000D02*
X97500000Y-68000000D01*
X97500000Y-68000000D02*
X104550000Y-60950000D01*
X104550000Y-60950000D02*
X104550000Y-55500000D01*
X75437500Y-63500000D02*
X80787500Y-63500000D01*
X80787500Y-63500000D02*
X85287500Y-68000000D01*
X75437500Y-63500000D02*
X68000000Y-63500000D01*
X68000000Y-63500000D02*
X67500000Y-63000000D01*
X45400000Y-67900000D02*
X39500000Y-62000000D01*
G04 #@! TO.N,+5V*
X77500000Y-64400000D02*
X78350000Y-65250000D01*
X78350000Y-65250000D02*
X78350000Y-68000000D01*
X98087500Y-51000000D02*
X98087500Y-51912500D01*
X98087500Y-51912500D02*
X97000000Y-53000000D01*
X61587500Y-64087500D02*
X62000000Y-64500000D01*
X61587500Y-63000000D02*
X61587500Y-64087500D01*
G04 #@! TO.N,GND*
X60500000Y-55540000D02*
X59960000Y-55000000D01*
X59960000Y-55000000D02*
X58437500Y-55000000D01*
D50*
X67500000Y-60500000D02*
X66500000Y-59500000D01*
X67500000Y-63000000D02*
X67500000Y-60500000D01*
X68000000Y-67500000D02*
X68000000Y-63500000D01*
G04 #@! TO.N,Net-(D2-K)*
X47500000Y-62000000D02*
X49850000Y-62000000D01*
G04 #@! TO.N,Net-(JP1-B)*
X45650000Y-59500000D02*
X45650000Y-61900000D01*
G04 #@! TO.N,/ACDC_5V*
X43000000Y-53000000D02*
X41500000Y-54500000D01*
X41500000Y-54500000D02*
X41500000Y-56650000D01*
X41500000Y-56650000D02*
X44350000Y-59500000D01*
X44500000Y-53000000D02*
X43000000Y-53000000D01*
G04 #@! TO.N,+5V*
X53150000Y-62000000D02*
X53150000Y-66650000D01*
X53150000Y-66650000D02*
X54000000Y-67500000D01*
D49*
G04 #@! TO.N,Net-(D4-A)*
X80000000Y-68000000D02*
X83712500Y-68000000D01*
G04 #@! TO.N,/PUMP_TRIAC*
X62000000Y-58500000D02*
X58912500Y-58500000D01*
X58912500Y-58500000D02*
X58000000Y-59412500D01*
X62000000Y-58500000D02*
X60000000Y-60500000D01*
X60000000Y-60500000D02*
X60000000Y-67500000D01*
G04 #@! TO.N,/STEAM_VALVE_IN*
X63412500Y-63000000D02*
X65675000Y-63000000D01*
G04 #@! TO.N,Net-(D2-K)*
X47500000Y-63550000D02*
X47500000Y-63500000D01*
X47500000Y-63500000D02*
X47500000Y-62000000D01*
G04 #@! TO.N,/THERMISTOR_OUT*
X21000000Y-68000000D02*
X18500000Y-68000000D01*
X18500000Y-68000000D02*
X15500000Y-65000000D01*
X15500000Y-65000000D02*
X15500000Y-59500000D01*
X15500000Y-59500000D02*
X17500000Y-57500000D01*
X17500000Y-57500000D02*
X20000000Y-57500000D01*
G04 #@! TO.N,/THERMISTOR_IN*
X21000000Y-65500000D02*
X21000000Y-61500000D01*
X21000000Y-61500000D02*
X22500000Y-60000000D01*
X22500000Y-60000000D02*
X22500000Y-57500000D01*
G04 #@! TO.N,/STEAM_VALVE_IN*
X49500000Y-69500000D02*
X49000000Y-70000000D01*
X49000000Y-70000000D02*
X32000000Y-70000000D01*
X30500000Y-68500000D02*
X30500000Y-66000000D01*
X32000000Y-70000000D02*
X30500000Y-68500000D01*
G04 #@! TO.N,/AC_ZC*
X50000000Y-56000000D02*
X50000000Y-50300000D01*
G04 #@! TO.N,/BOILER_TRIAC*
X101550000Y-58262500D02*
X101550000Y-59950000D01*
X101550000Y-59950000D02*
X101500000Y-60000000D01*
G04 #@! TO.N,/AC_RELAYS*
X71250000Y-69750000D02*
X71937500Y-69062500D01*
X56000000Y-67500000D02*
X58250000Y-69750000D01*
X58250000Y-69750000D02*
X71250000Y-69750000D01*
X71937500Y-69062500D02*
X71937500Y-68500000D01*
D50*
G04 #@! TO.N,+5V*
X81150000Y-62500000D02*
X81150000Y-57850000D01*
G04 #@! TO.N,/120VAC_HOT_SWITCHED*
X57870000Y-32580000D02*
X67000000Y-32580000D01*
X55450000Y-35000000D02*
X57870000Y-32580000D01*
X52450000Y-35000000D02*
X55450000Y-35000000D01*
X51000000Y-36450000D02*
X52450000Y-35000000D01*
G04 #@! TO.N,Net-(D1-A)*
X73562500Y-57937500D02*
X73562500Y-62550000D01*
X73562500Y-62550000D02*
X77800000Y-62550000D01*
G04 #@! TO.N,120VAC_NEUTRAL*
X45720000Y-34000000D02*
X44500000Y-35220000D01*
X49500000Y-34000000D02*
X45720000Y-34000000D01*
D49*
G04 #@! TO.N,Net-(Q5-G)*
X108040000Y-43000000D02*
X108040000Y-35055000D01*
G04 #@! TO.N,Net-(Q1-G)*
X71937500Y-66675000D02*
X71937500Y-66075000D01*
X71937500Y-66075000D02*
X73562500Y-64450000D01*
G04 #@! TO.N,Net-(R7-Pad2)*
X52920000Y-52420000D02*
X52920000Y-50800000D01*
X53000000Y-53000000D02*
X53000000Y-52500000D01*
X53000000Y-52500000D02*
X52920000Y-52420000D01*
G04 #@! TO.N,Net-(Q4-G)*
X58000000Y-57587500D02*
X56562500Y-56150000D01*
G04 #@! TO.N,Net-(R12-Pad2)*
X99912500Y-51000000D02*
X102580000Y-51000000D01*
G04 #@! TO.N,Net-(Q6-G)*
X101550000Y-55675000D02*
X101550000Y-56437500D01*
X103600000Y-53625000D02*
X101550000Y-55675000D01*
D50*
G04 #@! TO.N,Net-(R3-Pad1)*
X50000000Y-40550000D02*
X50000000Y-44000000D01*
X51000000Y-39550000D02*
X50000000Y-40550000D01*
G04 #@! TO.N,Net-(R5-Pad1)*
X47500000Y-43960000D02*
X47500000Y-37050000D01*
G04 #@! TO.N,Net-(R6-Pad1)*
X52500000Y-41050000D02*
X55500000Y-38050000D01*
X52500000Y-42760000D02*
X52500000Y-41050000D01*
X52920000Y-43180000D02*
X52500000Y-42760000D01*
D49*
G04 #@! TO.N,Net-(Q4-D)*
X56562500Y-54050000D02*
X55397500Y-52885000D01*
X55397500Y-52885000D02*
X55397500Y-50862500D01*
G04 #@! TO.N,Net-(Q6-D)*
X105500000Y-53625000D02*
X105500000Y-50620000D01*
G04 #@! TO.N,/STEAM_VALVE_IN*
X64000000Y-67500000D02*
X64000000Y-63587500D01*
X64000000Y-63587500D02*
X63412500Y-63000000D01*
G04 #@! TO.N,Net-(D2-K)*
X45950000Y-65100000D02*
X47500000Y-63550000D01*
G04 #@! TD*
M02*
